<svg xmlns="http://www.w3.org/2000/svg" xmlns:xlink="http://www.w3.org/1999/xlink" viewBox="0 0 182.4 182.4"><path d="M168.2 182.4h-154c-7.8 0-14.2-6.3-14.2-14.2v-154C0 6.4 6.4 0 14.2 0h154.1c7.8 0 14.2 6.3 14.2 14.2v154.1c-.1 7.8-6.4 14.1-14.3 14.1z" fill="#fff" opacity=".8" enable-background="new"/><g opacity=".6" enable-background="new"><path d="M22.9 155.7c.3 1.9 2 3 4.5 3 2.4 0 4.1-1.3 4.1-3 0-1.5-1-2.5-3.4-3l-2-.4c-3.5-.8-5.1-2.4-5.1-4.9 0-2.9 2.6-4.9 6.2-4.9 3.5 0 6.1 2.1 6.2 5.1h-2.2c-.2-1.9-1.7-3.1-4-3.1-2.2 0-3.9 1.1-3.9 2.9 0 1.4.9 2.3 3.3 2.9l2 .4c3.7.8 5.1 2.3 5.1 4.8 0 3.3-2.6 5.3-6.5 5.3-3.8 0-6.4-2-6.6-5h2.3zm17-11.1v3.1h2.5v1.7h-2.5v7.5c0 1.2.5 1.7 1.6 1.7.2 0 .7 0 .9-.1v1.8c-.3.1-.8.1-1.3.1-2.3 0-3.2-1-3.2-3.4v-7.7H36v-1.7h1.9v-3.1h2zm5.1 12.2c0-2.2 1.7-3.5 4.6-3.7l3.6-.2v-1.1c0-1.5-1-2.5-2.8-2.5-1.6 0-2.7.8-2.9 2h-2.1c.1-2.2 2-3.9 5-3.9s4.9 1.6 4.9 4.1v8.8h-2v-2.2c-.8 1.5-2.4 2.4-4.1 2.4-2.5.1-4.2-1.4-4.2-3.7zm1.7-12.7c0-.7.6-1.3 1.3-1.3s1.3.6 1.3 1.3-.6 1.3-1.3 1.3c-.7.1-1.3-.5-1.3-1.3zm6.5 11.5v-1l-3.4.2c-1.7.1-2.7.9-2.7 2.1s1 2 2.5 2c2.1-.1 3.6-1.5 3.6-3.3zm-1.9-11.5c0-.7.6-1.3 1.3-1.3s1.3.6 1.3 1.3-.6 1.3-1.3 1.3c-.7.1-1.3-.5-1.3-1.3zm7.8 3.6h2v2c.7-1.4 2.1-2.2 4-2.2 2.8 0 4.4 1.8 4.4 4.7v8.2h-2.1v-7.9c0-2.1-1-3.2-2.9-3.2-2 0-3.3 1.4-3.3 3.6v7.5h-2.1v-12.7zm14 13.8h2.2c.4 1.2 1.7 1.9 3.3 1.9 2.2 0 3.5-1.3 3.5-3.2v-2c-.8 1.4-2.3 2.3-4.1 2.3-3.2 0-5.4-2.6-5.4-6.5 0-4 2.1-6.5 5.4-6.5 1.8 0 3.3.9 4.1 2.4h0v-2.1h2v12.4c0 3-2.2 5-5.7 5-2.7 0-4.9-1.6-5.3-3.7zm9-7.5c0-2.8-1.5-4.7-3.7-4.7s-3.6 1.8-3.6 4.7 1.4 4.6 3.6 4.6 3.7-1.8 3.7-4.6zm11.5 2.8c0-2.2 1.7-3.5 4.6-3.7l3.6-.2v-1.1c0-1.5-1-2.5-2.8-2.5-1.6 0-2.7.8-2.9 2H94c.1-2.2 2-3.9 5-3.9s4.9 1.6 4.9 4.1v8.8h-2v-2.2c-.8 1.5-2.4 2.4-4.1 2.4-2.5.1-4.2-1.4-4.2-3.7zm8.2-1.2v-1l-3.4.2c-1.7.1-2.7.9-2.7 2.1s1 2 2.5 2c2.1-.1 3.6-1.5 3.6-3.3zm5.9-12.8h2.1v17.6h-2.1v-17.6zm6.1 0h2.1v17.6h-2.1v-17.6z"/><use xlink:href="#B"/></g><g opacity=".6" enable-background="new"><path d="M31.3 126.4h-7l-1.8 5h-2.3l6.5-17.6h2.2l6.5 17.6H33l-1.7-5zm-6.4-1.9h5.7l-2.8-8h-.1l-2.8 8zm23.2 6.9h-2v-2.1c-.8 1.5-2.1 2.3-4 2.3-2.8 0-4.4-1.8-4.4-4.7v-8.2h2.1v7.9c0 2.1 1 3.2 2.9 3.2 2.1 0 3.3-1.4 3.3-3.6v-7.5h2.1v12.7z"/><use xlink:href="#B" x="-67.9" y="-29"/><path d="M59.4 125.1c0-4.1 2.4-6.6 5.9-6.6s5.9 2.5 5.9 6.6c0 4-2.4 6.6-5.9 6.6-3.5-.1-5.9-2.6-5.9-6.6zm9.6 0c0-3-1.5-4.7-3.7-4.7s-3.7 1.7-3.7 4.7 1.5 4.7 3.7 4.7 3.7-1.8 3.7-4.7z"/></g><path d="M50.3 37s.3-1.6.7-2.1c.3-.6.9-1.4 1.6-1.8.6-.4 1.1-.7 1.4-.7s.7-.1 1 .1.6.4.8 1.3l.3 2.7.1 2.4.2 4.1c0 .3.2 3.1.2 3.3s.2 2.7.2 3.2l-.1 2.5c.1 1.6.5 3.1-.2 4.6-.6 1.4-1.7 2.7-2.9 3.6-.5.4-1.9 1.3-2.9 1.7a20.82 20.82 0 0 1-3.3 1.1c-.5.1-1.4.4-2.3.3s-1.8-.6-2.1-1L41.4 60c-.6-.8-2.1-2.3-2.3-2.5l-2.7-2.8c-.2-.2-2.7-3.5-2.9-3.8l-3.1-4.7-1.8-3.2-1.5-2.8-.9-1.8c-.1-.2-.3-1.1-.2-1.4.3-1.2 1.4-1.4 2.3-.7.3.2.9 1 1.1 1.3s6.1 8.1 6.1 8.1c.2.3.7.3.9 0s-.1-.7-.2-.9c-.4-.6-8.3-11.5-8.3-11.5s-.6-.9-.7-1.1c-.3-1.1 0-2.3 1.1-2.7s1.9.3 2.6 1.1c.3.3 8.3 11.5 8.3 11.5.2.2.3.3.5.3.3 0 .5-.4.4-.7-.1-.2-.5-.9-.5-.9L30 27.6c-.6-1-.9-2-.1-3 .7-.8 2.2-1.3 3-.2.3.3 10.1 14.3 10.1 14.3.2.2.5.4.7.3.5-.1.3-.7.1-1-.1-.2-8.4-11.8-8.4-11.8-.4-.9-.6-2 .2-2.8 1-1.1 2.5-.5 3.3.5.2.3 1 1.4 1 1.4l2.7 3.7c.1.2 3.4 4.4 3.8 4.8a111.05 111.05 0 0 0 2.7 3.2l.5.5c.1.1.1.4.1.8a491.89 491.89 0 0 0 .1 3.9c0 .2.1.4.2.6.3.3.6.1.7-.2.1-.2 0-2.4 0-2.7-.3-.3-.5-1.3-.4-2.9zM30.4 65.5s-2.8-.8-4.8-2.7-2.6-2.7-2.8-3-1.8-3-2-3.6c-.2-.5-.2-.7.2-1 .4-.4 1-.5 1.3.1.1.2.4 1 .5 1.2s1 1.9 1.7 2.8 1.6 2.2 4.4 3.8a15.37 15.37 0 0 0 1.9.9c.3.1.6.2.8.4.1.2.1.6-.1.8-.2.4-.7.4-1.1.3zm-5.1-16.2l.9 3.1c.3.7 1.1 2.3 1.9 3.3s2.4 2.6 3.4 3.2 2 1.1 3 1.5c1 .3 1.1.4 1.2.5.3.4.2 1.2-.4 1.3-.2 0-1.2 0-1.8-.3l-3.3-1.6c-.5-.4-3.9-3.1-5.1-6s-1.6-4.7-1.7-5.3-.2-1.1 0-1.4c.3-.4.9-.8 1.3-.3a1.9 1.9 0 0 1 .3.9c.1 0 .2.8.3 1.1zm26.8-25s.2-.1.5-.1.8.3 1.4.7 1.9 1 3.6 2.9 2.9 3.9 3.4 5.8c.5 1.8.8 3.1.9 5.5 0 .5.1 1.6 0 1.7-.2.5-.5.7-1 .7-.6 0-.7-.5-.7-1l-.1-2.9c-.1-.6-.3-1.9-.7-2.9-.3-1-.7-2.3-1.7-3.6-.9-1.3-2.1-2.8-3.2-3.5l-2.4-1.5c-.6-.6-.7-1.2 0-1.8zm4.9-2.5s.3-.2.5-.1c.2 0 .7.3.9.4s2.1 1.3 3.6 3c1.5 1.6 3.5 5.1 3.7 7.4.1.4.2.9 0 1-.2.2-.4.4-.7.4-.2 0-.5 0-.7-.1-.1-.2-.4-1.1-.4-1.3s-.6-2-1.1-3.1c-.6-1.1-1.1-2.3-2.6-3.7s-2.2-1.9-2.8-2.2-1.1-.6-1.1-1a1.21 1.21 0 0 1 .7-.7z" fill="#9da0a2"/><defs ><path id="B" d="M122.6 144.6v3.1h2.5v1.7h-2.5v7.5c0 1.2.5 1.7 1.6 1.7.2 0 .7 0 .9-.1v1.8c-.3.1-.8.1-1.3.1-2.3 0-3.2-1-3.2-3.4v-7.7h-1.9v-1.7h1.9v-3.1h2z"/></defs></svg>