<svg xmlns="http://www.w3.org/2000/svg" xmlns:xlink="http://www.w3.org/1999/xlink" viewBox="0 0 182.4 182.4"><path d="M168.2 182.4h-154c-7.8 0-14.2-6.3-14.2-14.2v-154C0 6.4 6.4 0 14.2 0h154.1c7.8 0 14.2 6.3 14.2 14.2v154.1c-.1 7.8-6.4 14.1-14.3 14.1z" fill="#737373" opacity=".2" enable-background="new"/><g opacity=".3" enable-background="new" fill="#fff"><path d="M33.5 160.4v-8h-9.7v8h-2.2v-17.6h2.2v7.6h9.7v-7.6h2.2v17.6h-2.2zm16.8-3.6c-.4 2.2-2.5 3.9-5.3 3.9-3.6 0-5.8-2.5-5.8-6.5 0-3.9 2.2-6.6 5.7-6.6 3.4 0 5.5 2.5 5.5 6.3v.8h-9.1v.1c0 2.4 1.4 4 3.7 4 1.6 0 2.8-.8 3.1-2h2.2zm-9-3.8h6.9c0-2.1-1.4-3.6-3.4-3.6-2-.1-3.3 1.5-3.5 3.6z"/><use xlink:href="#B"/><use xlink:href="#B" x="21"/><path d="M95.2 156.8c0-2.2 1.7-3.5 4.6-3.7l3.6-.2v-1.1c0-1.5-1-2.5-2.8-2.5-1.6 0-2.7.8-2.9 2h-2.1c.1-2.2 2-3.9 5-3.9s4.9 1.6 4.9 4.1v8.8h-2v-2.2c-.8 1.5-2.4 2.4-4.1 2.4-2.5.1-4.2-1.4-4.2-3.7zm8.2-1.2v-1l-3.4.2c-1.7.1-2.7.9-2.7 2.1s1 2 2.5 2c2.1-.1 3.6-1.5 3.6-3.3z"/></g><path d="M31.3 126.4h-7l-1.8 5h-2.3l6.5-17.6h2.2l6.5 17.6H33l-1.7-5zm-6.4-1.9h5.7l-2.8-8h-.1l-2.8 8zm23.2 6.9h-2v-2.1c-.8 1.5-2.1 2.3-4 2.3-2.8 0-4.4-1.8-4.4-4.7v-8.2h2.1v7.9c0 2.1 1 3.2 2.9 3.2 2.1 0 3.3-1.4 3.3-3.6v-7.5h2.1v12.7zm6.6-15.8v3.1h2.5v1.7h-2.5v7.5c0 1.2.5 1.7 1.6 1.7.2 0 .7 0 .9-.1v1.8c-.3.1-.8.1-1.3.1-2.3 0-3.2-1-3.2-3.4v-7.7h-1.9v-1.7h1.9v-3.1h2zm4.7 9.5c0-4.1 2.4-6.6 5.9-6.6s5.9 2.5 5.9 6.6c0 4-2.4 6.6-5.9 6.6-3.5-.1-5.9-2.6-5.9-6.6zm9.6 0c0-3-1.5-4.7-3.7-4.7s-3.7 1.7-3.7 4.7 1.5 4.7 3.7 4.7 3.7-1.8 3.7-4.7z" opacity=".3" enable-background="new" fill="#fff"/><path d="M57.7 47.3c0-.7-.2-.9-.2-.9l-14.7-14s-.5-.4-.9-.4c-.5 0-.9.3-.9.3L26.4 46.2c-.4.5-.4.8-.4.8v16.8a1.79 1.79 0 0 0 1.8 1.8h7.5c.8 0 1.4-.6 1.4-1.4V51.3c0-.8.6-1.4 1.4-1.4h7.7c.8 0 1.4.6 1.4 1.4v12.9c0 .8.6 1.4 1.4 1.4h7.5a1.79 1.79 0 0 0 1.8-1.8l-.2-16.5zm-32.1-3l-1.5 1.4s-.3.3-.5.3-.5 0-.7-.2-1.8-2.6-1.8-2.6-.1-.4-.1-.6c.1-.3.2-.6.3-.7.3-.2 19.7-18.6 19.7-18.6s.4-.3.8-.3.7.1.8.2.5.4.5.4l8.2 7.8v-4.6s.1-.4.2-.6.3-.3.4-.3.3-.1.3-.1H55s.3.1.4.3c.2.2.3.5.3.6v9l6.6 6.3s.2.3.3.4c.1.2.1.6.1.6 0 .1-.1.4-.2.5S61 45.8 61 45.8s-.2.3-.4.3c-.2.1-.4.1-.6 0s-.5-.4-.5-.4L43.1 30s-.3-.3-.5-.4-.4-.2-.7-.2-.5.1-.7.1c-.1.1-.4.3-.6.5-.3.3-15 14.3-15 14.3z" fill="#9da0a2"/><defs ><path id="B" d="M53.6 147.7h2v2c.6-1.3 1.9-2.2 3.6-2.2s3 .9 3.6 2.4h0c.7-1.5 2.2-2.4 4-2.4 2.5 0 4.1 1.6 4.1 4.2v8.8h-2.1v-8.3c0-1.7-1-2.8-2.6-2.8-1.7 0-2.9 1.2-2.9 3v8.1h-2.1V152c0-1.5-1-2.5-2.6-2.5-1.7 0-2.9 1.3-2.9 3.1v8h-2.1v-12.9z"/></defs></svg>