<svg xmlns="http://www.w3.org/2000/svg" xmlns:xlink="http://www.w3.org/1999/xlink" viewBox="0 0 182.4 182.4"><path d="M168.2 182.4h-154c-7.8 0-14.2-6.3-14.2-14.2v-154C0 6.4 6.4 0 14.2 0h154.1c7.8 0 14.2 6.3 14.2 14.2v154.1c-.1 7.8-6.4 14.1-14.3 14.1z" fill="#737373" opacity=".2" enable-background="new"/><path d="M31.3 155.4h-7l-1.8 5h-2.3l6.5-17.6h2.2l6.5 17.6H33l-1.7-5zm-6.4-1.9h5.7l-2.8-8h-.1l-2.8 8zm17.9 6.9h-2.2L36 147.7h2.2l3.5 10.4 3.5-10.4h2.2l-4.6 12.7z" opacity=".3" enable-background="new" fill="#fff"/><g opacity=".3" enable-background="new" fill="#fff"><path d="M29 131.7c-4.9 0-8.1-3.6-8.1-9.2 0-5.5 3.1-9 8.1-9 3.8 0 6.7 2.3 7.4 5.8H34c-.7-2.4-2.6-3.7-5.1-3.7-3.6 0-5.8 2.6-5.8 7s2.2 7.2 5.8 7.2c3.1 0 5.3-2 5.3-5v-.3h-5v-1.9h7.2v1.7c.1 4.6-2.7 7.4-7.4 7.4zm10.4-3.9c0-2.2 1.7-3.5 4.6-3.7l3.6-.2v-1.1c0-1.5-1-2.5-2.8-2.5-1.6 0-2.7.8-2.9 2h-2.1c.1-2.2 2-3.9 5-3.9s4.9 1.6 4.9 4.1v8.8h-2v-2.2c-.8 1.5-2.4 2.4-4.1 2.4-2.5.1-4.2-1.4-4.2-3.7zm8.3-1.2v-1l-3.4.2c-1.7.1-2.7.9-2.7 2.1s1 2 2.5 2c2-.1 3.6-1.5 3.6-3.3z"/><use xlink:href="#B"/><path d="M60.9 125.1c0-4 2.2-6.6 5.4-6.6 1.8 0 3.3.9 4 2.3h0v-7h2.1v17.6h-2v-2.1c-.8 1.5-2.3 2.4-4.1 2.4-3.2-.1-5.4-2.7-5.4-6.6zm2.2 0c0 2.9 1.4 4.7 3.7 4.7 2.2 0 3.6-1.9 3.6-4.7s-1.5-4.7-3.6-4.7c-2.3 0-3.7 1.8-3.7 4.7zm23.8 2.7c-.4 2.2-2.5 3.9-5.3 3.9-3.6 0-5.8-2.5-5.8-6.5 0-3.9 2.2-6.6 5.7-6.6 3.4 0 5.5 2.5 5.5 6.3v.8h-9v.1c0 2.4 1.4 4 3.7 4 1.6 0 2.8-.8 3.1-2h2.1zM78 124h6.9c0-2.1-1.4-3.6-3.4-3.6-2-.1-3.4 1.5-3.5 3.6z"/><use xlink:href="#B" x="36.7"/><path d="M97.7 125.1c0-4.1 2.4-6.6 5.9-6.6s5.9 2.5 5.9 6.6c0 4-2.4 6.6-5.9 6.6-3.5-.1-5.9-2.6-5.9-6.6zm9.6 0c0-3-1.5-4.7-3.7-4.7s-3.7 1.7-3.7 4.7 1.5 4.7 3.7 4.7 3.7-1.8 3.7-4.7zm7.5 4.2h0v2.1h-2v-17.6h2.1v7c.8-1.5 2.3-2.3 4.1-2.3 3.2 0 5.4 2.6 5.4 6.6s-2.1 6.6-5.4 6.6c-2-.1-3.4-1-4.2-2.4zm0-4.2c0 2.8 1.5 4.7 3.7 4.7s3.6-1.8 3.6-4.7-1.4-4.7-3.6-4.7-3.7 1.8-3.7 4.7z"/></g><path d="M22 22.1v43.1h27.2V22.1H22zm23 23.4c0 1.1-.9 1.9-1.9 1.9h0c-1.1 0-1.9-.9-1.9-1.9v-3.8c0-1.1.9-1.9 1.9-1.9h0c1.1 0 1.9.9 1.9 1.9v3.8z" fill="#9da0a2"/><defs ><path id="B" d="M53.5 118.7h2v2.1c.4-1.4 1.6-2.3 3.1-2.3.4 0 .7.1.9.1v2.1c-.2-.1-.6-.1-1.1-.1-1.6 0-2.7 1.2-2.7 3v7.9h-2.1v-12.8z"/></defs></svg>