<svg xmlns="http://www.w3.org/2000/svg" viewBox="0 0 182.4 182.4"><path d="M168.2 182.4h-154c-7.8 0-14.2-6.3-14.2-14.2v-154C0 6.4 6.4 0 14.2 0h154.1c7.8 0 14.2 6.3 14.2 14.2v154.1c-.1 7.8-6.4 14.1-14.3 14.1z" fill="#737373" opacity=".2" enable-background="new"/><path d="M31.3 155.4h-7l-1.8 5h-2.3l6.5-17.6h2.2l6.5 17.6H33l-1.7-5zm-6.4-1.9h5.7l-2.8-8h-.1l-2.8 8zm17.9 6.9h-2.2L36 147.7h2.2l3.5 10.4 3.5-10.4h2.2l-4.6 12.7z" opacity=".3" enable-background="new" fill="#fff"/><path d="M21.6 131.4v-17.6h2.2v8.6h.1l7.8-8.6h2.8l-7.2 7.8 7.9 9.8h-2.8l-6.6-8.3-1.9 2.1v6.2h-2.3zm14.7-6.3c0-4.1 2.4-6.6 5.9-6.6s5.9 2.5 5.9 6.6c0 4-2.4 6.6-5.9 6.6-3.5-.1-5.9-2.6-5.9-6.6zm9.6 0c0-3-1.5-4.7-3.7-4.7s-3.7 1.7-3.7 4.7 1.5 4.7 3.7 4.7 3.7-1.8 3.7-4.7zm-7.3-10c0-.7.6-1.3 1.3-1.3s1.3.6 1.3 1.3-.6 1.3-1.3 1.3c-.7.1-1.3-.5-1.3-1.3zm4.5 0c0-.7.6-1.3 1.3-1.3s1.3.6 1.3 1.3-.6 1.3-1.3 1.3c-.7.1-1.3-.5-1.3-1.3zm10.3 16.3h-2.1v-17.6h2.1v10.6l5.6-5.6h2.6l-5.5 5.5 5.7 7.2h-2.5l-4.7-5.9-1.2 1.1v4.7z" opacity=".3" enable-background="new" fill="#fff"/><path d="M24.2 56.1v-7.9c0-.3 0-.5.1-.8.1-.2.3-.4.5-.6.4-.4.8-.7 1-1.1.1-.3.1-.6.1-.9v-2.5c0-.3 0-.6-.1-.9-.1-.5-.4-.9-.7-1.2s-.6-.5-.9-.7c-.7-.5-1.2-1-1.7-1.5-1-1.2-1.6-2.8-1.6-4.3V24c0-2.2 3.3-2.1 3.3.1v8.3c0 .4.2.7.6.8s.7 0 1-.4c.1-.1.1-.3.1-.4v-8.3c0-2.2 3.3-2.2 3.3 0v8.4c0 .4.3.7.6.8.4.1.8-.1 1-.4.1-.1.1-.3.1-.4v-8.3a1.69 1.69 0 0 1 .3-1c.9-1.4 3-.6 3 1v9.7c0 .4 0 .8-.1 1.2-.2 1-.6 1.9-1.2 2.7-.5.7-1.1 1.2-1.8 1.7-.2.1-.3.2-.5.3-.5.4-.9.9-1.2 1.4-.2.4-.3.8-.2 1.2v2.9c0 .5.2.9.5 1.2l.6.6c.2.2.3.3.4.6s.2.6.2.9v15.7c0 1.9-1.5 3.6-3.5 3.5s-3.1-1.8-3.1-3.6l-.1-8.1zm26.1-12V64c0 1.9-1.5 3.6-3.5 3.5-1.8-.1-3.2-1.7-3.2-3.5V45.8c0-.7-.4-1.2-1-1.6-.2-.1-.4-.2-.6-.2s-.4 0-.6-.1c-.4-.1-.7-.4-.8-.7s-.2-.5-.2-.8V32.2c0-3.7.8-9.5 4.7-11.1 2.6-1.1 5.3.3 5.3 3.3l-.1 19.7z" fill="#9da0a2"/></svg>