<svg xmlns="http://www.w3.org/2000/svg" viewBox="0 0 182.4 182.4"><path d="M168.2 182.4h-154c-7.8 0-14.2-6.3-14.2-14.2v-154C0 6.4 6.4 0 14.2 0h154.1c7.8 0 14.2 6.3 14.2 14.2v154.1c-.1 7.8-6.4 14.1-14.3 14.1h0z" opacity=".8" fill="#fff" enable-background="new"/><path d="M27.9 142.8c3.3 0 5.6 2.3 5.6 5.7 0 3.3-2.4 5.7-5.7 5.7h-4.1v6.3h-2.2v-17.6l6.4-.1zm-4.1 9.4h3.5c2.5 0 4-1.4 4-3.7s-1.4-3.7-4-3.7h-3.5v7.4zm11.3 4.6c0-2.2 1.7-3.5 4.6-3.7l3.6-.2v-1.1c0-1.5-1-2.5-2.8-2.5-1.6 0-2.7.8-2.9 2h-2.1c.1-2.2 2-3.9 5-3.9s4.9 1.6 4.9 4.1v8.8h-2v-2.2c-.8 1.5-2.4 2.4-4.1 2.4-2.5.1-4.2-1.4-4.2-3.7h0zm8.2-1.2v-1l-3.4.2c-1.7.1-2.7.9-2.7 2.1s1 2 2.5 2c2.1-.1 3.6-1.5 3.6-3.3zm-5.2-11.3c0-1.2 1-2.3 2.2-2.3h.1a2.3 2.3 0 1 1 0 4.6c-1.3 0-2.3-1.1-2.3-2.3zm3.6 0c0-.7-.6-1.3-1.3-1.3s-1.3.6-1.3 1.3.6 1.3 1.3 1.3 1.3-.6 1.3-1.3zm-8.2-12.9v-8h-9.7v8h-2.2v-17.6h2.2v7.6h9.7v-7.6h2.2v17.6h-2.2zm5.4-3.6c0-2.2 1.7-3.5 4.6-3.7l3.6-.2v-1.1c0-1.5-1-2.5-2.8-2.5-1.6 0-2.7.8-2.9 2h-2.1c.1-2.2 2-3.9 5-3.9s4.9 1.6 4.9 4.1v8.8h-2v-2.2c-.8 1.5-2.4 2.4-4.1 2.4-2.5.1-4.2-1.4-4.2-3.7zm8.2-1.2v-1l-3.4.2c-1.7.1-2.7.9-2.7 2.1s1 2 2.5 2c2.1-.1 3.6-1.5 3.6-3.3zm5.9-12.8h2.1v17.6H53v-17.6zm6.1 0h2.1v17.6h-2.1v-17.6z" opacity=".6" enable-background="new"/><path d="M31.2 19.1h0a3.8 3.8 0 0 0 3.8 3.8h7.4c.1 0 .1 0 .1.1v9.7l3.8 3.8h.1l1.3-1.3c.5-.5.8-1.4.8-2V23c0-.1 0-.1.1-.1H56a3.8 3.8 0 0 0 3.8-3.8h0c0-.1 0-.1-.1-.1H31.3c-.1 0-.1 0-.1.1z" fill="#9da0a2"/><path d="M41.9 71.2s1.5.5 11.1-8.3c.5-.4 6.8-6.4 6.3-7.2-.7-.8-18.9-20.9-18.9-20.9s-.6-1-9.1 6.5c-.6.5-9.3 8.1-8.3 9.2l18.9 20.7z" fill="#b68349"/></svg>