<svg xmlns="http://www.w3.org/2000/svg" viewBox="0 0 182.4 182.4"><path d="M168.2 182.4h-154c-7.8 0-14.2-6.3-14.2-14.2v-154C0 6.4 6.4 0 14.2 0h154.1c7.8 0 14.2 6.3 14.2 14.2v154.1c-.1 7.8-6.4 14.1-14.3 14.1z" fill="#fff" opacity=".8" enable-background="new"/><path d="M27.9 142.8c3.3 0 5.6 2.3 5.6 5.7 0 3.3-2.4 5.7-5.7 5.7h-4.1v6.3h-2.2v-17.6h6.4zm-4.1 9.4h3.5c2.5 0 4-1.4 4-3.7s-1.4-3.7-4-3.7h-3.5v7.4zm11.3 4.6c0-2.2 1.7-3.5 4.6-3.7l3.6-.2v-1.1c0-1.5-1-2.5-2.8-2.5-1.6 0-2.7.8-2.9 2h-2.1c.1-2.2 2-3.9 5-3.9s4.9 1.6 4.9 4.1v8.8h-2v-2.2c-.8 1.5-2.4 2.4-4.1 2.4-2.5.1-4.2-1.4-4.2-3.7zm8.2-1.2v-1l-3.4.2c-1.7.1-2.7.9-2.7 2.1s1 2 2.5 2c2.1-.1 3.6-1.5 3.6-3.3zm-5.2-11.3a2.26 2.26 0 0 1 2.3-2.3 2.3 2.3 0 1 1 0 4.6c-1.3 0-2.3-1.1-2.3-2.3zm3.6 0c0-.7-.6-1.3-1.3-1.3s-1.3.6-1.3 1.3.6 1.3 1.3 1.3 1.3-.6 1.3-1.3z" enable-background="new" opacity=".6"/><path d="M21.6 131.4v-17.6h6.7c3 0 5.1 1.8 5.1 4.4 0 1.8-1.3 3.5-3 3.8v.1c2.4.3 3.9 2 3.9 4.3 0 3.1-2.2 4.9-6 4.9h-6.7zm2.2-10h3.3c2.6 0 4-1 4-2.9 0-1.7-1.2-2.7-3.3-2.7h-4v5.6zm4.1 8.1c2.6 0 4-1.1 4-3.1s-1.4-3.1-4.2-3.1h-3.9v6.2h4.1zm9-1.7c0-2.2 1.7-3.5 4.6-3.7l3.6-.2v-1.1c0-1.5-1-2.5-2.8-2.5-1.6 0-2.7.8-2.9 2h-2.1c.1-2.2 2-3.9 5-3.9s4.9 1.6 4.9 4.1v8.8h-2v-2.2c-.8 1.5-2.4 2.4-4.1 2.4-2.5.1-4.2-1.4-4.2-3.7zm8.2-1.2v-1l-3.4.2c-1.7.1-2.7.9-2.7 2.1s1 2 2.5 2c2.1-.1 3.6-1.5 3.6-3.3zm5.2-1.5c0-4 2.2-6.6 5.4-6.6 1.8 0 3.3.9 4 2.3h0v-7h2.1v17.6h-2v-2.1c-.8 1.5-2.3 2.4-4.1 2.4-3.2-.1-5.4-2.7-5.4-6.6zm2.2 0c0 2.9 1.4 4.7 3.7 4.7 2.2 0 3.6-1.9 3.6-4.7s-1.5-4.7-3.6-4.7c-2.3 0-3.7 1.8-3.7 4.7zm13.3-6.4h2v2.1c.4-1.4 1.6-2.3 3.1-2.3.4 0 .7.1.9.1v2.1c-.2-.1-.6-.1-1.1-.1-1.6 0-2.7 1.2-2.7 3v7.9h-2.1v-12.8zm19.1 12.7h-2v-2.1c-.8 1.5-2.1 2.3-4 2.3-2.8 0-4.4-1.8-4.4-4.7v-8.2h2.1v7.9c0 2.1 1 3.2 2.9 3.2 2.1 0 3.3-1.4 3.3-3.6v-7.5h2.1v12.7zm3.7-12.7h2v2c.6-1.3 1.9-2.2 3.6-2.2s3 .9 3.6 2.4h0c.7-1.5 2.2-2.4 4-2.4 2.5 0 4.1 1.6 4.1 4.2v8.8h-2.1v-8.3c0-1.7-1-2.8-2.6-2.8-1.7 0-2.9 1.2-2.9 3v8.1h-2.1V123c0-1.5-1-2.5-2.6-2.5-1.7 0-2.9 1.3-2.9 3.1v8h-2.1v-12.9z" enable-background="new" opacity=".6"/><path d="M25.5 20.8h2.3a2.69 2.69 0 0 1 2.7 2.7v17.1a2.26 2.26 0 0 0 2.3 2.3h18.8c.5 0 .9.4.8.9-.1 2.4-1.1 8.8-9.4 10.1v7c0 .2.2.4.4.4h1.4a1.54 1.54 0 0 1 1.5 1.5v.3a1.54 1.54 0 0 1-1.5 1.5H23.7a1.54 1.54 0 0 1-1.5-1.5v-.3a1.54 1.54 0 0 1 1.5-1.5h1.5c.2 0 .4-.2.4-.4v-7s-4.8-.3-4.8-5.4V23.6a2.69 2.69 0 0 1 2.7-2.7h2v-.1zm7.6 18.3V22.3a1.54 1.54 0 0 1 1.5-1.5h.6a1.54 1.54 0 0 1 1.5 1.5v17.5a.68.68 0 0 1-.7.7h-2.1a.68.68 0 0 1-.7-.7l-.1-.7z" fill="#62b0e8"/></svg>