<svg xmlns="http://www.w3.org/2000/svg" viewBox="0 0 182.4 182.4"><path d="M168.2 182.4h-154c-7.8 0-14.2-6.3-14.2-14.2v-154C0 6.4 6.4 0 14.2 0h154.1c7.8 0 14.2 6.3 14.2 14.2v154.1c-.1 7.8-6.4 14.1-14.3 14.1z" fill="#737373" opacity=".2" enable-background="new"/><path d="M33 160.4l-1.8-5h-7l-1.8 5h-2.3l6.5-17.6h2.2l6.5 17.6H33zm-5.3-14.9l-2.8 8h5.7l-2.9-8zm19.8 2.2l-4.7 12.7h-2.2L36 147.7h2.2l3.5 10.4 3.5-10.4h2.3z" enable-background="new" opacity=".3" fill="#fff"/><path d="M28.2 131.4H26v-15.6h-5.6v-2h13.3v2h-5.6v15.6zm16.1-12.7l-4.7 12.7h-2.2l-4.7-12.7H35l3.5 10.4 3.5-10.4h2.3z" enable-background="new" opacity=".3" fill="#fff"/><path d="M21.3 21.8v38.1h55.2V21.8H21.3zm52.4 35.3H24.2V24.6h49.5v32.5z" fill="#9da0a2"/></svg>