<svg xmlns="http://www.w3.org/2000/svg" viewBox="0 0 182.4 182.4"><path d="M168.2 182.4h-154c-7.8 0-14.2-6.3-14.2-14.2v-154C0 6.4 6.4 0 14.2 0h154.1c7.8 0 14.2 6.3 14.2 14.2v154.1c-.1 7.8-6.4 14.1-14.3 14.1z" fill="#fff" opacity=".8" enable-background="new"/><path d="M21.6 142.8h6.3c1.7 0 3 .5 4.1 1.6s1.6 2.4 1.6 4.1-.5 3-1.6 4.1-2.4 1.6-4.1 1.6h-4.1v6.3h-2.2v-17.7zm2.2 1.9v7.4h3.5c1.3 0 2.2-.3 2.9-1s1-1.6 1-2.7-.3-2.1-1-2.7-1.7-1-2.9-1h-3.5zm15.5 15.9c-1.3 0-2.3-.3-3.1-1S35 158 35 156.8c0-1.1.4-2 1.2-2.6.8-.7 1.9-1 3.4-1.1l3.6-.2v-1.1c0-.8-.2-1.4-.7-1.8s-1.2-.7-2.1-.7c-.8 0-1.5.2-2 .5-.5.4-.8.8-1 1.5h-2.1c.1-1.1.6-2.1 1.5-2.8s2.1-1.1 3.6-1.1 2.7.4 3.5 1.1c.9.7 1.3 1.8 1.3 3v8.8h-2v-2.2c-.4.7-.9 1.3-1.7 1.7-.5.6-1.3.8-2.2.8zm.5-1.8c1 0 1.8-.3 2.5-.9s1-1.4 1-2.3v-1l-3.4.2c-.9.1-1.5.3-2 .6-.5.4-.7.8-.7 1.4s.2 1.1.7 1.5c.5.3 1.1.5 1.9.5zm2.3-12.9c-.5.5-1 .7-1.6.7s-1.2-.2-1.6-.7c-.5-.5-.7-1-.7-1.6s.2-1.2.7-1.6c.5-.5 1-.7 1.6-.7s1.2.2 1.6.7c.5.5.7 1 .7 1.6s-.2 1.1-.7 1.6zm-2.5-.8c.2.2.5.4.9.4.3 0 .6-.1.9-.4s.4-.5.4-.9c0-.3-.1-.6-.4-.9s-.5-.4-.9-.4-.6.1-.9.4-.4.5-.4.9.1.7.4.9z" enable-background="new" opacity=".6"/><path d="M23.8 131.4h-2.2v-17.6h10.7v2h-8.5v6.1h7.8v2h-7.8v7.5zm11.8 0v-17.6h2.1v17.6h-2.1zm9.7.2c-1.3 0-2.3-.3-3.1-1S41 129 41 127.8c0-1.1.4-2 1.2-2.6.8-.7 1.9-1 3.4-1.1l3.6-.2v-1.1c0-.8-.2-1.4-.7-1.8s-1.2-.7-2.1-.7c-.8 0-1.5.2-2 .5-.5.4-.8.8-1 1.5h-2.1c.1-1.1.6-2.1 1.5-2.8s2.1-1.1 3.6-1.1 2.7.4 3.5 1.1c.9.7 1.3 1.8 1.3 3v8.8h-2v-2.2c-.4.7-.9 1.3-1.7 1.7-.6.6-1.4.8-2.2.8zm-.2-15.3c-.3.3-.6.4-.9.4s-.7-.1-.9-.4c-.3-.3-.4-.6-.4-1s.1-.7.4-1 .6-.4.9-.4.7.1.9.4c.3.3.4.6.4 1 0 .5-.1.8-.4 1zm.7 13.5c1 0 1.8-.3 2.5-.9s1-1.4 1-2.3v-1l-3.4.2c-.9.1-1.5.3-2 .6-.5.4-.7.8-.7 1.4s.2 1.1.7 1.5c.5.3 1.1.5 1.9.5zm3.8-13.5c-.3.3-.6.4-.9.4s-.7-.1-.9-.4c-.3-.3-.4-.6-.4-1s.1-.7.4-1 .6-.4.9-.4.7.1.9.4c.3.3.4.6.4 1 0 .5-.1.8-.4 1zm7.7 8.1l5.6-5.6h2.6l-5.5 5.5 5.7 7.2h-2.5l-4.7-5.9-1.2 1.1v4.8h-2.1v-17.6h2.1v10.5zm11.6-8.8H71v3.1h2.5v1.7H71v7.5c0 .6.1 1 .4 1.3s.7.4 1.2.4c.3 0 .6 0 .9-.1v1.8c-.3.1-.7.1-1.3.1-1.2 0-2-.3-2.5-.8s-.7-1.4-.7-2.6v-7.7h-2v-1.7h1.9v-3z" enable-background="new" opacity=".6"/><g><animateTransform accumulate="none" additive="sum" attributeName="transform" attributeType="xml" calcMode="linear" dur="0.5s" fill="remove" from="0 44.1 43.7" repeatCount="indefinite" restart="always" to="360 44.1 43.7" type="rotate"/><g fill="#5daeea"><circle cx="44.1" cy="43.7" r="7.4"/><path d="M44.1 53.3c-2.6 0-5-1.1-6.7-2.8-1 1.2-1.8 2.7-2.6 3.7l-5.5 6c-2 3 .3 6.2 2.8 7.8 4.4 2.7 10.9 3.5 15.8 2.1 5.1-1.5 8.8-5.3 8.3-10.8-.3-3.8-2.2-6.7-4.5-9.6-1.8 2.1-4.5 3.6-7.6 3.6zm-2.5-18.8l-1.9-4.1-2.4-7.7c-1.6-3.2-5.5-2.8-8.1-1.4-4.5 2.5-8.4 7.7-9.7 12.6-1.3 5.1.2 10.3 5.2 12.6 3.5 1.6 7 1.4 10.6.8-.5-1.1-.7-2.3-.7-3.6 0-4.4 2.9-8.1 7-9.2zm23.5-6.8c-3.7-3.8-8.9-5.1-13.5-2-3.2 2.1-4.8 5.2-6.2 8.6 4.6.7 8.2 4.6 8.2 9.5 0 .9-.1 1.8-.4 2.6 1.5.2 3.2.3 4.4.5 2.6.5 5.2 1.4 7.9 1.9 3.6.3 5.3-3.3 5.4-6.2.3-5.2-2.2-11.3-5.8-14.9z"/></g></g></svg>