<svg xmlns="http://www.w3.org/2000/svg" viewBox="0 0 182.4 182.4"><path d="M168.2 182.4h-154c-7.8 0-14.2-6.3-14.2-14.2v-154C0 6.4 6.4 0 14.2 0h154.1c7.8 0 14.2 6.3 14.2 14.2v154.1c-.1 7.8-6.4 14.1-14.3 14.1z" fill="#fff" opacity=".8" enable-background="new"/><path d="M27.9 142.8c3.3 0 5.6 2.3 5.6 5.7 0 3.3-2.4 5.7-5.7 5.7h-4.1v6.3h-2.2v-17.6h6.4zm-4.1 9.4h3.5c2.5 0 4-1.4 4-3.7s-1.4-3.7-4-3.7h-3.5v7.4zm11.3 4.6c0-2.2 1.7-3.5 4.6-3.7l3.6-.2v-1.1c0-1.5-1-2.5-2.8-2.5-1.6 0-2.7.8-2.9 2h-2.1c.1-2.2 2-3.9 5-3.9s4.9 1.6 4.9 4.1v8.8h-2v-2.2c-.8 1.5-2.4 2.4-4.1 2.4-2.5.1-4.2-1.4-4.2-3.7zm8.2-1.2v-1l-3.4.2c-1.7.1-2.7.9-2.7 2.1s1 2 2.5 2c2.1-.1 3.6-1.5 3.6-3.3zm-5.2-11.3a2.26 2.26 0 0 1 2.3-2.3 2.3 2.3 0 1 1 0 4.6c-1.3 0-2.3-1.1-2.3-2.3zm3.6 0c0-.7-.6-1.3-1.3-1.3s-1.3.6-1.3 1.3.6 1.3 1.3 1.3 1.3-.6 1.3-1.3z" enable-background="new" opacity=".6"/><path d="M22.9 126.7c.3 1.9 2 3 4.5 3 2.4 0 4.1-1.3 4.1-3 0-1.5-1-2.5-3.4-3l-2-.4c-3.5-.8-5.1-2.4-5.1-4.9 0-2.9 2.6-4.9 6.2-4.9 3.5 0 6.1 2.1 6.2 5.1h-2.2c-.2-1.9-1.7-3.1-4-3.1-2.2 0-3.9 1.1-3.9 2.9 0 1.4.9 2.3 3.3 2.9l2 .4c3.7.8 5.1 2.3 5.1 4.8 0 3.3-2.6 5.3-6.5 5.3-3.8 0-6.4-2-6.6-5h2.3zm13.7 1.1c0-2.2 1.7-3.5 4.6-3.7l3.6-.2v-1.1c0-1.5-1-2.5-2.8-2.5-1.6 0-2.7.8-2.9 2H37c.1-2.2 2-3.9 5-3.9s4.9 1.6 4.9 4.1v8.8h-2v-2.2c-.8 1.5-2.4 2.4-4.1 2.4-2.5.1-4.2-1.4-4.2-3.7zm8.2-1.2v-1l-3.4.2c-1.7.1-2.7.9-2.7 2.1s1 2 2.5 2c2.1-.1 3.6-1.5 3.6-3.3zm5.8-7.9h2v2c.7-1.4 2.1-2.2 4-2.2 2.8 0 4.4 1.8 4.4 4.7v8.2h-2v-7.9c0-2.1-1-3.2-2.9-3.2-2 0-3.3 1.4-3.3 3.6v7.5h-2.1v-12.7zM67.1 132c0 2.6-1.2 3.7-3.9 3.7h-.4V134h.2c1.4 0 1.9-.5 1.9-1.9v-13.3H67V132zm-2.5-16.9c0-.7.6-1.3 1.3-1.3s1.3.6 1.3 1.3-.6 1.3-1.3 1.3c-.7.1-1.3-.5-1.3-1.3zm5.8 12.7c0-2.2 1.7-3.5 4.6-3.7l3.6-.2v-1.1c0-1.5-1-2.5-2.8-2.5-1.6 0-2.7.8-2.9 2h-2.1c.1-2.2 2-3.9 5-3.9s4.9 1.6 4.9 4.1v8.8h-2v-2.2c-.8 1.5-2.4 2.4-4.1 2.4-2.5.1-4.2-1.4-4.2-3.7zm8.2-1.2v-1l-3.4.2c-1.7.1-2.7.9-2.7 2.1s1 2 2.5 2c2.1-.1 3.6-1.5 3.6-3.3z" enable-background="new" opacity=".6"/><path d="M36.1 44.6l2.7-4.3H30l2.7 4.3c-5.7.8-7.1 6.6-6.4 11.5.8 5.8 3.6 11.4 6.5 16.3h-5.1v2.8H41v-2.8h-5.1c3-5 5.7-10.6 6.5-16.3.7-4.9-.7-10.6-6.3-11.5zm3.4 10.3c-.3 4.9-2.6 9.8-5 14l-.1.1v.1-.1c-2-3.4-3.7-7.2-4.6-11-.8-3.5-1.1-8.2 3.1-9.5 1.6-.6 3.5-.1 4.8.9 1.6 1.2 1.9 3.5 1.8 5.5z" fill="#9da0a2"/></svg>