<svg xmlns="http://www.w3.org/2000/svg" viewBox="0 0 182.4 182.4"><path d="M168.2 182.4h-154c-7.8 0-14.2-6.3-14.2-14.2v-154C0 6.4 6.4 0 14.2 0h154.1c7.8 0 14.2 6.3 14.2 14.2v154.1c-.1 7.8-6.4 14.1-14.3 14.1z" fill="#fff" opacity=".8" enable-background="new"/><path d="M21.6 142.8h6.3c1.7 0 3 .5 4.1 1.6s1.6 2.4 1.6 4.1-.5 3-1.6 4.1-2.4 1.6-4.1 1.6h-4.1v6.3h-2.2v-17.7zm2.2 1.9v7.4h3.5c1.3 0 2.2-.3 2.9-1s1-1.6 1-2.7-.3-2.1-1-2.7-1.7-1-2.9-1h-3.5zm15.5 15.9c-1.3 0-2.3-.3-3.1-1S35 158 35 156.8c0-1.1.4-2 1.2-2.6.8-.7 1.9-1 3.4-1.1l3.6-.2v-1.1c0-.8-.2-1.4-.7-1.8s-1.2-.7-2.1-.7c-.8 0-1.5.2-2 .5-.5.4-.8.8-1 1.5h-2.1c.1-1.1.6-2.1 1.5-2.8s2.1-1.1 3.6-1.1 2.7.4 3.5 1.1c.9.7 1.3 1.8 1.3 3v8.8h-2v-2.2c-.4.7-.9 1.3-1.7 1.7-.5.6-1.3.8-2.2.8zm.5-1.8c1 0 1.8-.3 2.5-.9s1-1.4 1-2.3v-1l-3.4.2c-.9.1-1.5.3-2 .6-.5.4-.7.8-.7 1.4s.2 1.1.7 1.5c.5.3 1.1.5 1.9.5zm2.3-12.9c-.5.5-1 .7-1.6.7s-1.2-.2-1.6-.7c-.5-.5-.7-1-.7-1.6s.2-1.2.7-1.6c.5-.5 1-.7 1.6-.7s1.2.2 1.6.7c.5.5.7 1 .7 1.6s-.2 1.1-.7 1.6zm-2.5-.8c.2.2.5.4.9.4.3 0 .6-.1.9-.4s.4-.5.4-.9c0-.3-.1-.6-.4-.9s-.5-.4-.9-.4-.6.1-.9.4-.4.5-.4.9.1.7.4.9z" enable-background="new" opacity=".6"/><path d="M28.2 131.4H26v-15.6h-5.6v-2h13.3v2h-5.6v15.6zm16.1-12.7l-4.7 12.7h-2.2l-4.7-12.7H35l3.5 10.4 3.5-10.4h2.3z" enable-background="new" opacity=".6"/><linearGradient id="A" gradientUnits="userSpaceOnUse" x1="23.811" y1="59.574" x2="66.086" y2="28.087"><stop offset=".208" stop-color="#83a5c2"/><stop offset=".364" stop-color="#87aec8"/><stop offset=".618" stop-color="#93c6d7"/><stop offset=".898" stop-color="#a3e8ec"/></linearGradient><path d="M24.2,24.6h49.5v32.5H24.2V24.6z" fill="url(#A)"/><path d="M21.3 21.8v38.1h55.2V21.8H21.3zm52.4 35.3H24.2V24.6h49.5v32.5z" fill="#616161"/></svg>