<svg xmlns="http://www.w3.org/2000/svg" xmlns:xlink="http://www.w3.org/1999/xlink" viewBox="0 0 182.4 182.4"><path d="M168.2 182.4h-154c-7.8 0-14.2-6.3-14.2-14.2v-154C0 6.4 6.4 0 14.2 0h154.1c7.8 0 14.2 6.3 14.2 14.2v154.1c-.1 7.8-6.4 14.1-14.3 14.1z" fill="#737373" opacity=".2" enable-background="new"/><path d="M31.3 155.4h-7l-1.8 5h-2.3l6.5-17.6h2.2l6.5 17.6H33l-1.7-5zm-6.4-1.9h5.7l-2.8-8h-.1l-2.8 8zm17.9 6.9h-2.2L36 147.7h2.2l3.5 10.4 3.5-10.4h2.2l-4.6 12.7z" opacity=".3" enable-background="new" fill="#fff"/><g opacity=".3" enable-background="new" fill="#fff"><path d="M36.9 131.4v-13.6h-.1l-5.6 13.6h-1.9l-5.6-13.6h-.1v13.6h-2.1v-17.6h2.6l6.1 14.8h.1l6.1-14.8H39v17.6h-2.1z"/><use xlink:href="#B"/><path d="M57.3 118.7h2v2c.7-1.4 2.1-2.2 4-2.2 2.8 0 4.4 1.8 4.4 4.7v8.2h-2.1v-7.9c0-2.1-1-3.2-2.9-3.2-2 0-3.3 1.4-3.3 3.6v7.5h-2.1v-12.7zm14-3.6c0-.7.6-1.3 1.3-1.3s1.3.6 1.3 1.3-.6 1.3-1.3 1.3c-.7.1-1.3-.5-1.3-1.3zm.3 3.6h2.1v12.7h-2.1v-12.7zm8.8-3.1v3.1h2.5v1.7h-2.5v7.5c0 1.2.5 1.7 1.6 1.7.2 0 .7 0 .9-.1v1.8c-.3.1-.8.1-1.3.1-2.3 0-3.2-1-3.2-3.4v-7.7h-1.9v-1.7h1.9v-3.1h2z"/><use xlink:href="#B" x="42.7"/><path d="M100 118.7h2v2.1c.4-1.4 1.6-2.3 3.1-2.3.4 0 .7.1.9.1v2.1c-.2-.1-.6-.1-1.1-.1-1.6 0-2.7 1.2-2.7 3v7.9H100v-12.8zm18.6 9.1c-.4 2.2-2.5 3.9-5.3 3.9-3.6 0-5.8-2.5-5.8-6.5 0-3.9 2.2-6.6 5.8-6.6 3.4 0 5.5 2.5 5.5 6.3v.8h-9.1v.1c0 2.4 1.4 4 3.7 4 1.6 0 2.8-.8 3.1-2h2.1zm-8.9-3.8h6.9c0-2.1-1.4-3.6-3.4-3.6-2-.1-3.4 1.5-3.5 3.6zm12.2-5.3h2v2.1c.4-1.4 1.6-2.3 3.1-2.3.4 0 .7.1.9.1v2.1c-.2-.1-.6-.1-1.1-.1-1.6 0-2.7 1.2-2.7 3v7.9H122v-12.8z"/></g><path d="M37.9 38.9c-4.6 0-8.4 3.8-8.4 8.4s3.8 8.4 8.4 8.4 8.4-3.8 8.4-8.4-3.7-8.4-8.4-8.4zm0 11.7a3.33 3.33 0 0 1-3.3-3.3 3.33 3.33 0 0 1 3.3-3.3 3.33 3.33 0 0 1 3.3 3.3c0 1.8-1.4 3.3-3.3 3.3zm14.2-29.3H23.8a2.65 2.65 0 0 0-2.6 2.6v42.9a2.65 2.65 0 0 0 2.6 2.6h28.3a2.65 2.65 0 0 0 2.6-2.6V23.9c-.1-1.5-1.2-2.6-2.6-2.6zm-14.2 6c1.3 0 2.4 1.1 2.4 2.4s-1.1 2.4-2.4 2.4-2.4-1.1-2.4-2.4 1.1-2.4 2.4-2.4zm10.3 35.5l-.4 1.9s-.2.6-.6.6H28.7c-.4 0-.6-.6-.6-.6l-.4-1.9c-.2-.9.6-.9.6-.9h19.3s.9.1.6.9zm-10.3-4.2a11.3 11.3 0 1 1 0-22.6 11.29 11.29 0 0 1 11.3 11.3c.1 6.2-5 11.3-11.3 11.3z" fill="#9da0a2"/><defs ><path id="B" d="M42.4 125.1c0-4.1 2.4-6.6 5.9-6.6s5.9 2.5 5.9 6.6c0 4-2.4 6.6-5.9 6.6-3.5-.1-5.9-2.6-5.9-6.6zm9.6 0c0-3-1.5-4.7-3.7-4.7s-3.7 1.7-3.7 4.7 1.5 4.7 3.7 4.7 3.7-1.8 3.7-4.7z"/></defs></svg>