<svg xmlns="http://www.w3.org/2000/svg" xmlns:xlink="http://www.w3.org/1999/xlink" viewBox="0 0 182.4 182.4"><path d="M168.2 182.4h-154c-7.8 0-14.2-6.3-14.2-14.2v-154C0 6.4 6.4 0 14.2 0h154.1c7.8 0 14.2 6.3 14.2 14.2v154.1c-.1 7.8-6.4 14.1-14.3 14.1z" fill="#fff" opacity=".8" enable-background="new"/><path d="M27.9 142.8c3.3 0 5.6 2.3 5.6 5.7 0 3.3-2.4 5.7-5.7 5.7h-4.1v6.3h-2.2v-17.6h6.4zm-4.1 9.4h3.5c2.5 0 4-1.4 4-3.7s-1.4-3.7-4-3.7h-3.5v7.4zm11.3 4.6c0-2.2 1.7-3.5 4.6-3.7l3.6-.2v-1.1c0-1.5-1-2.5-2.8-2.5-1.6 0-2.7.8-2.9 2h-2.1c.1-2.2 2-3.9 5-3.9s4.9 1.6 4.9 4.1v8.8h-2v-2.2c-.8 1.5-2.4 2.4-4.1 2.4-2.5.1-4.2-1.4-4.2-3.7zm8.2-1.2v-1l-3.4.2c-1.7.1-2.7.9-2.7 2.1s1 2 2.5 2c2.1-.1 3.6-1.5 3.6-3.3zm-5.2-11.3a2.26 2.26 0 0 1 2.3-2.3c1.3 0 2.3 1.1 2.3 2.3s-1 2.3-2.3 2.3-2.3-1.1-2.3-2.3zm3.6 0c0-.7-.6-1.3-1.3-1.3s-1.3.6-1.3 1.3.6 1.3 1.3 1.3 1.3-.6 1.3-1.3z" enable-background="new" opacity=".6"/><g enable-background="new" opacity=".6"><path d="M36.9 131.4v-13.6h-.1l-5.6 13.6h-1.9l-5.6-13.6h-.1v13.6h-2.1v-17.6h2.6l6.1 14.8h.1l6.1-14.8H39v17.6h-2.1z"/><use xlink:href="#B"/><path d="M57.3 118.7h2v2c.7-1.4 2.1-2.2 4-2.2 2.8 0 4.4 1.8 4.4 4.7v8.2h-2.1v-7.9c0-2.1-1-3.2-2.9-3.2-2 0-3.3 1.4-3.3 3.6v7.5h-2.1v-12.7zm14-3.6c0-.7.6-1.3 1.3-1.3s1.3.6 1.3 1.3-.6 1.3-1.3 1.3c-.7.1-1.3-.5-1.3-1.3zm.3 3.6h2.1v12.7h-2.1v-12.7zm8.8-3.1v3.1h2.5v1.7h-2.5v7.5c0 1.2.5 1.7 1.6 1.7.2 0 .7 0 .9-.1v1.8c-.3.1-.8.1-1.3.1-2.3 0-3.2-1-3.2-3.4v-7.7h-1.9v-1.7h1.9v-3.1h2z"/><use xlink:href="#B" x="42.7"/><path d="M100 118.7h2v2.1c.4-1.4 1.6-2.3 3.1-2.3.4 0 .7.1.9.1v2.1c-.2-.1-.6-.1-1.1-.1-1.6 0-2.7 1.2-2.7 3v7.9H100v-12.8zm18.6 9.1c-.4 2.2-2.5 3.9-5.3 3.9-3.6 0-5.8-2.5-5.8-6.5 0-3.9 2.2-6.6 5.8-6.6 3.4 0 5.5 2.5 5.5 6.3v.8h-9.1v.1c0 2.4 1.4 4 3.7 4 1.6 0 2.8-.8 3.1-2h2.1zm-8.9-3.8h6.9c0-2.1-1.4-3.6-3.4-3.6-2-.1-3.4 1.5-3.5 3.6zm12.2-5.3h2v2.1c.4-1.4 1.6-2.3 3.1-2.3.4 0 .7.1.9.1v2.1c-.2-.1-.6-.1-1.1-.1-1.6 0-2.7 1.2-2.7 3v7.9H122v-12.8z"/></g><path d="M52.1 69.4H23.8a2.65 2.65 0 0 1-2.6-2.6V23.9a2.65 2.65 0 0 1 2.6-2.6h28.3a2.65 2.65 0 0 1 2.6 2.6v42.9c-.1 1.4-1.2 2.6-2.6 2.6z" fill="#2a2a2a"/><path d="M47.6 61.9H28.3s-.9.1-.6.9.4 1.9.4 1.9.2.6.6.6h18.5c.4 0 .6-.6.6-.6l.4-1.9c.2-.9-.6-.9-.6-.9z" fill="#686868"/><circle cx="37.9" cy="47.3" r="11.3" fill="#e5dd00"/><circle cx="37.9" cy="47.3" r="3.3" fill="#2a2a2a"/><circle cx="37.9" cy="29.7" r="2.4" fill="#686868"/><defs ><path id="B" d="M42.4 125.1c0-4.1 2.4-6.6 5.9-6.6s5.9 2.5 5.9 6.6c0 4-2.4 6.6-5.9 6.6-3.5-.1-5.9-2.6-5.9-6.6zm9.6 0c0-3-1.5-4.7-3.7-4.7s-3.7 1.7-3.7 4.7 1.5 4.7 3.7 4.7 3.7-1.8 3.7-4.7z"/></defs></svg>