<svg xmlns="http://www.w3.org/2000/svg" viewBox="0 0 182.4 182.4"><path d="M168.2 182.4h-154c-7.8 0-14.2-6.3-14.2-14.2v-154C0 6.4 6.4 0 14.2 0h154.1c7.8 0 14.2 6.3 14.2 14.2v154.1c-.1 7.8-6.4 14.1-14.3 14.1z" fill="#737373" opacity=".2" enable-background="new"/><path d="M31.3 155.4h-7l-1.8 5h-2.3l6.5-17.6h2.2l6.5 17.6H33l-1.7-5zm-6.4-1.9h5.7l-2.8-8h-.1l-2.8 8zm17.9 6.9h-2.2L36 147.7h2.2l3.5 10.4 3.5-10.4h2.2l-4.6 12.7z" opacity=".3" enable-background="new" fill="#fff"/><path d="M27.5 113.8c5.2 0 8.3 3.3 8.3 8.8 0 5.6-3.1 8.8-8.3 8.8h-5.9v-17.6h5.9zm-3.7 15.6h3.6c4 0 6.2-2.4 6.2-6.8s-2.2-6.8-6.2-6.8h-3.6v13.6zm14.9-1.6c0-2.2 1.7-3.5 4.6-3.7l3.6-.2v-1.1c0-1.5-1-2.5-2.8-2.5-1.6 0-2.7.8-2.9 2h-2.1c.1-2.2 2-3.9 5-3.9s4.9 1.6 4.9 4.1v8.8h-2v-2.2c-.8 1.5-2.4 2.4-4.1 2.4-2.5.1-4.2-1.4-4.2-3.7zm8.3-1.2v-1l-3.4.2c-1.7.1-2.7.9-2.7 2.1s1 2 2.5 2c2-.1 3.6-1.5 3.6-3.3zm8.6-11v3.1h2.5v1.7h-2.5v7.5c0 1.2.5 1.7 1.6 1.7.2 0 .7 0 .9-.1v1.8c-.3.1-.8.1-1.3.1-2.3 0-3.2-1-3.2-3.4v-7.7h-1.9v-1.7h1.9v-3.1h2zm4.7 9.5c0-4.1 2.4-6.6 5.9-6.6s5.9 2.5 5.9 6.6c0 4-2.4 6.6-5.9 6.6-3.5-.1-5.9-2.6-5.9-6.6zm9.6 0c0-3-1.5-4.7-3.7-4.7s-3.7 1.7-3.7 4.7 1.5 4.7 3.7 4.7 3.7-1.8 3.7-4.7zm5.3-6.4h2v2.1c.4-1.4 1.6-2.3 3.1-2.3.4 0 .7.1.9.1v2.1c-.2-.1-.6-.1-1.1-.1-1.6 0-2.7 1.2-2.7 3v7.9h-2.1v-12.8zm8.8-4.9h2.1v17.6H84v-17.6zm5.5 14c0-2.2 1.7-3.5 4.6-3.7l3.6-.2v-1.1c0-1.5-1-2.5-2.8-2.5-1.6 0-2.7.8-2.9 2h-2c.1-2.2 2-3.9 5-3.9s4.9 1.6 4.9 4.1v8.8h-2v-2.2c-.8 1.5-2.4 2.4-4.1 2.4-2.6.1-4.3-1.4-4.3-3.7zm8.3-1.2v-1l-3.4.2c-1.7.1-2.7.9-2.7 2.1s1 2 2.5 2c2-.1 3.6-1.5 3.6-3.3zm5.8-7.9h2v2c.6-1.3 1.9-2.2 3.6-2.2s3 .9 3.6 2.4h0c.7-1.5 2.2-2.4 4-2.4 2.5 0 4.1 1.6 4.1 4.2v8.8h-2.1v-8.3c0-1.7-1-2.8-2.6-2.8-1.7 0-2.9 1.2-2.9 3v8.1h-2.1V123c0-1.5-1-2.5-2.6-2.5-1.7 0-2.9 1.3-2.9 3.1v8h-2.1v-12.9zm32.6 6.4c0 4-2.2 6.6-5.4 6.6-1.8 0-3.3-.9-4-2.3h0v6.3h-2.1v-16.9h2v2.1c.8-1.4 2.3-2.4 4.1-2.4 3.3 0 5.4 2.6 5.4 6.6zm-2.1 0c0-2.9-1.4-4.7-3.7-4.7-2.2 0-3.6 1.9-3.6 4.7s1.5 4.7 3.6 4.7c2.3 0 3.7-1.9 3.7-4.7zm4.8 2.7c0-2.2 1.7-3.5 4.6-3.7l3.6-.2v-1.1c0-1.5-1-2.5-2.8-2.5-1.6 0-2.7.8-2.9 2h-2.1c.1-2.2 2-3.9 5-3.9s4.9 1.6 4.9 4.1v8.8h-2v-2.2c-.8 1.5-2.4 2.4-4.1 2.4-2.5.1-4.2-1.4-4.2-3.7zm8.2-1.2v-1l-3.4.2c-1.7.1-2.7.9-2.7 2.1s1 2 2.5 2c2.1-.1 3.6-1.5 3.6-3.3z" opacity=".3" enable-background="new" fill="#fff"/><path d="M23.2 35.6c-.2.2-.2.3 0 .7.5.9 3.5 7.3 3.3 19.1v1.7c0 .2 0 .7 1.1.7H41c1.1 0 1.1-.5 1.1-.7v-1.7c-.2-11.7 2.8-18.2 3.1-19.1.2-.3.2-.5 0-.7-3.5-.3-7.2-.5-11.1-.5-3.7-.1-7.3.2-10.9.5zM40 59.1H28.4s-.9 0-.9.9.5.9.9.9h11.7c.2 0 .9 0 .9-.9-.1-.9-1-.9-1-.9zm0 5.9H28.4s-.9 0-.9.9.5.9.9.9h11.7c.2 0 .9 0 .9-.9.1-.9-1-.9-1-.9zm0-2.9H28.4s-.9 0-.9.9.5.9.9.9h11.7c.2 0 .9 0 .9-.9.1-.9-1-.9-1-.9zM36.7 68H32s-.7 0-.7.9c0 .7.3.9.7.9h4.7c.3 0 .7-.2.7-.9s-.7-.9-.7-.9z" fill="#9da0a2"/></svg>