<svg xmlns="http://www.w3.org/2000/svg" xmlns:xlink="http://www.w3.org/1999/xlink" viewBox="0 0 182.4 182.4"><path d="M168.2 182.4h-154c-7.8 0-14.2-6.3-14.2-14.2v-154C0 6.4 6.4 0 14.2 0h154.1c7.8 0 14.2 6.3 14.2 14.2v154.1c-.1 7.8-6.4 14.1-14.3 14.1z" fill="#737373" opacity=".1" enable-background="new"/><g opacity=".1" enable-background="new" fill="#fff"><path d="M23.1 145c1.5-1.6 3.4-2.5 5.9-2.5s4.5.8 5.9 2.5c1.5 1.6 2.2 3.9 2.2 6.7s-.7 5-2.2 6.6-3.4 2.4-5.9 2.4-4.5-.8-5.9-2.4c-1.5-1.6-2.2-3.8-2.2-6.6 0-2.9.7-5.1 2.2-6.7zm10.2 1.4c-1.1-1.3-2.5-1.9-4.3-1.9s-3.2.6-4.3 1.9-1.6 3-1.6 5.2.5 3.9 1.6 5.2 2.5 1.9 4.3 1.9 3.2-.6 4.3-1.9 1.6-3 1.6-5.2-.5-3.9-1.6-5.2zm7.9-1.8h2.1v3.1h2.5v1.7h-2.5v7.5c0 .6.1 1 .4 1.3s.7.4 1.2.4c.3 0 .6 0 .9-.1v1.8c-.3.1-.7.1-1.3.1-1.2 0-2-.3-2.5-.8s-.7-1.4-.7-2.6v-7.7h-1.9v-1.7h1.9v-3z"/><use xlink:href="#B"/><path d="M55.3 160.4v-17.6h2.1v17.6h-2.1zm6.1 0v-17.6h2.1v17.6h-2.1zm11.2 4.8c-1.4 0-2.6-.4-3.6-1.1s-1.6-1.6-1.8-2.7h2.2c.2.6.6 1.1 1.2 1.4.6.4 1.3.5 2.1.5 1.1 0 2-.3 2.6-.9s.9-1.3.9-2.3v-2a4.62 4.62 0 0 1-1.7 1.7c-.7.4-1.5.6-2.4.6-1.6 0-2.9-.6-3.9-1.8s-1.5-2.8-1.5-4.7c0-2 .5-3.6 1.5-4.7 1-1.2 2.3-1.8 3.9-1.8.9 0 1.7.2 2.4.6a4.62 4.62 0 0 1 1.7 1.7h0v-2.1h2V160c0 1.5-.5 2.7-1.6 3.7-.8 1-2.2 1.5-4 1.5zm0-6.6c1.1 0 2-.4 2.7-1.3.7-.8 1-2 1-3.4s-.3-2.5-1-3.4-1.6-1.3-2.7-1.3-2 .4-2.6 1.3c-.7.8-1 2-1 3.4s.3 2.5 1 3.4c.6.9 1.5 1.3 2.6 1.3zm13.2 2c-1.3 0-2.3-.3-3.1-1s-1.2-1.6-1.2-2.8c0-1.1.4-2 1.2-2.6.8-.7 1.9-1 3.4-1.1l3.6-.2v-1.1c0-.8-.2-1.4-.7-1.8s-1.2-.7-2.1-.7c-.8 0-1.5.2-2 .5-.5.4-.8.8-1 1.5h-2.1c.1-1.1.6-2.1 1.5-2.8s2.1-1.1 3.6-1.1 2.7.4 3.5 1.1c.9.7 1.3 1.8 1.3 3v8.8h-2v-2.2c-.4.7-.9 1.3-1.7 1.7-.5.6-1.3.8-2.2.8zm-.2-15.3c-.3.3-.6.4-.9.4s-.7-.1-.9-.4c-.3-.3-.4-.6-.4-1s.1-.7.4-1 .6-.4.9-.4.7.1.9.4c.3.3.4.6.4 1 0 .5-.1.8-.4 1zm.7 13.5c1 0 1.8-.3 2.5-.9s1-1.4 1-2.3v-1l-3.4.2c-.9.1-1.5.3-2 .6-.5.4-.7.8-.7 1.4s.2 1.1.7 1.5c.5.3 1.1.5 1.9.5zm3.9-13.5c-.3.3-.6.4-.9.4s-.7-.1-.9-.4c-.3-.3-.4-.6-.4-1s.1-.7.4-1 .6-.4.9-.4.7.1.9.4c.3.3.4.6.4 1 0 .5-.1.8-.4 1zm5.5 15.1v-12.7h2v2c.4-.7.9-1.3 1.6-1.7s1.5-.6 2.5-.6c1.4 0 2.5.4 3.2 1.3.8.8 1.2 2 1.2 3.4v8.2H104v-7.9c0-1-.2-1.8-.7-2.4-.5-.5-1.2-.8-2.2-.8s-1.8.3-2.4 1-.9 1.5-.9 2.6v7.5h-2.1zm19.4 4.8c-1.4 0-2.6-.4-3.6-1.1s-1.6-1.6-1.8-2.7h2.2c.2.6.6 1.1 1.2 1.4.6.4 1.3.5 2.1.5 1.1 0 2-.3 2.6-.9s.9-1.3.9-2.3v-2a4.62 4.62 0 0 1-1.7 1.7c-.7.4-1.5.6-2.4.6-1.6 0-2.9-.6-3.9-1.8s-1.5-2.8-1.5-4.7c0-2 .5-3.6 1.5-4.7 1-1.2 2.3-1.8 3.9-1.8.9 0 1.7.2 2.4.6a4.62 4.62 0 0 1 1.7 1.7h0v-2.1h2V160c0 1.5-.5 2.7-1.6 3.7-.9 1-2.3 1.5-4 1.5zm-.1-6.6c1.1 0 2-.4 2.7-1.3.7-.8 1-2 1-3.4s-.3-2.5-1-3.4-1.6-1.3-2.7-1.3-2 .4-2.6 1.3c-.7.8-1 2-1 3.4s.3 2.5 1 3.4c.6.9 1.5 1.3 2.6 1.3zm9.7 1.8v-17.6h2.1v17.6h-2.1z"/><use xlink:href="#B" x="81.6"/><path d="M142 165.2c-1.4 0-2.6-.4-3.6-1.1s-1.6-1.6-1.8-2.7h2.2c.2.6.6 1.1 1.2 1.4.6.4 1.3.5 2.1.5 1.1 0 2-.3 2.6-.9s.9-1.3.9-2.3v-2a4.62 4.62 0 0 1-1.7 1.7c-.7.4-1.5.6-2.4.6-1.6 0-2.9-.6-3.9-1.8s-1.5-2.8-1.5-4.7c0-2 .5-3.6 1.5-4.7 1-1.2 2.3-1.8 3.9-1.8.9 0 1.7.2 2.4.6a4.62 4.62 0 0 1 1.7 1.7h0v-2.1h2V160c0 1.5-.5 2.7-1.6 3.7-.8 1-2.2 1.5-4 1.5zm-.1-6.6c1.1 0 2-.4 2.7-1.3.7-.8 1-2 1-3.4s-.3-2.5-1-3.4-1.6-1.3-2.7-1.3-2 .4-2.6 1.3c-.7.8-1 2-1 3.4s.3 2.5 1 3.4 1.5 1.3 2.6 1.3z"/></g><path d="M66.7 58.2l-20.2-35c-.7-1.5-2.1-2.6-3.8-2.7-1.7.2-3.1 1.2-3.8 2.7l-20.2 35c-2.1 3.6-.4 6.6 3.8 6.6h40.4c4.2-.1 5.9-3 3.8-6.6zm-21.5-.9h-5v-5h5v5zm0-10h-5V32.4h5v14.9z" fill="#9da0a2" opacity=".1"/><defs ><path id="B" d="M50.3 145.6c-.4 0-.7-.1-.9-.4-.3-.3-.4-.6-.4-.9 0-.4.1-.7.4-.9.3-.3.6-.4.9-.4.4 0 .7.1.9.4.3.3.4.6.4.9 0 .4-.1.7-.4.9s-.6.4-.9.4zm-1.1 14.8v-12.7h2.1v12.7h-2.1z"/></defs></svg>