<svg xmlns="http://www.w3.org/2000/svg" xmlns:xlink="http://www.w3.org/1999/xlink" viewBox="0 0 182.4 182.4"><path d="M168.2 182.4h-154c-7.8 0-14.2-6.3-14.2-14.2v-154C0 6.4 6.4 0 14.2 0h154.1c7.8 0 14.2 6.3 14.2 14.2v154.1c-.1 7.8-6.4 14.1-14.3 14.1z" fill="#fff" opacity=".8" enable-background="new"/><path d="M27.9 142.8c3.3 0 5.6 2.3 5.6 5.7 0 3.3-2.4 5.7-5.7 5.7h-4.1v6.3h-2.2v-17.6h6.4zm-4.1 9.4h3.5c2.5 0 4-1.4 4-3.7s-1.4-3.7-4-3.7h-3.5v7.4zm11.3 4.6c0-2.2 1.7-3.5 4.6-3.7l3.6-.2v-1.1c0-1.5-1-2.5-2.8-2.5-1.6 0-2.7.8-2.9 2h-2.1c.1-2.2 2-3.9 5-3.9s4.9 1.6 4.9 4.1v8.8h-2v-2.2c-.8 1.5-2.4 2.4-4.1 2.4-2.5.1-4.2-1.4-4.2-3.7zm8.2-1.2v-1l-3.4.2c-1.7.1-2.7.9-2.7 2.1s1 2 2.5 2c2.1-.1 3.6-1.5 3.6-3.3zm-5.2-11.3a2.26 2.26 0 0 1 2.3-2.3c1.3 0 2.3 1.1 2.3 2.3s-1 2.3-2.3 2.3-2.3-1.1-2.3-2.3zm3.6 0c0-.7-.6-1.3-1.3-1.3s-1.3.6-1.3 1.3.6 1.3 1.3 1.3 1.3-.6 1.3-1.3z" opacity=".6" enable-background="new"/><g opacity=".6" enable-background="new"><path d="M21.6 131.4v-17.6h6.7c3 0 5.1 1.8 5.1 4.4 0 1.8-1.3 3.5-3 3.8v.1c2.4.3 3.9 2 3.9 4.3 0 3.1-2.2 4.9-6 4.9h-6.7zm2.2-10h3.3c2.6 0 4-1 4-2.9 0-1.7-1.2-2.7-3.3-2.7h-4v5.6zm4.1 8.1c2.6 0 4-1.1 4-3.1s-1.4-3.1-4.2-3.1h-3.9v6.2h4.1zm20-1.7c-.4 2.2-2.5 3.9-5.3 3.9-3.6 0-5.8-2.5-5.8-6.5 0-3.9 2.2-6.6 5.7-6.6 3.4 0 5.5 2.5 5.5 6.3v.8h-9.1v.1c0 2.4 1.4 4 3.7 4 1.6 0 2.8-.8 3.1-2h2.2zM39 124h6.9c0-2.1-1.4-3.6-3.4-3.6-2-.1-3.4 1.5-3.5 3.6zm12.3-10.2h2.1v17.6h-2.1v-17.6zm6.1 22.3v-1.8c.2 0 .6.1.8.1 1.2 0 1.8-.6 2.3-2.1l.3-.9-4.7-12.7h2.3l3.5 10.6 3.5-10.6h2.2l-5 13.6c-1.1 3-2.1 3.9-4.4 3.9-.1 0-.5-.1-.8-.1zm17.5-17.6c2.8 0 4.6 1.6 4.7 3.9h-2c-.2-1.3-1.1-2.1-2.7-2.1s-2.6.8-2.6 1.9c0 .9.6 1.5 2.1 1.8l2 .5c2.6.6 3.5 1.6 3.5 3.4 0 2.2-2.1 3.8-4.9 3.8-3 0-4.8-1.5-5.1-3.9H72c.3 1.5 1.2 2.1 3 2.1s2.8-.7 2.8-1.9c0-.9-.5-1.4-2-1.8l-2-.5c-2.4-.6-3.6-1.7-3.6-3.5 0-2.2 1.9-3.7 4.7-3.7z"/><use xlink:href="#B"/><path d="M97.1 115.1c0-.7.6-1.3 1.3-1.3s1.3.6 1.3 1.3-.6 1.3-1.3 1.3c-.7.1-1.3-.5-1.3-1.3zm.3 3.6h2.1v12.7h-2.1v-12.7z"/><use xlink:href="#B" x="20.3"/><path d="M117.4 132.5h2.2c.4 1.2 1.7 1.9 3.3 1.9 2.2 0 3.5-1.3 3.5-3.2v-2c-.8 1.4-2.3 2.3-4.1 2.3-3.2 0-5.4-2.6-5.4-6.5 0-4 2.1-6.5 5.4-6.5 1.8 0 3.3.9 4.1 2.4h0v-2.1h2v12.4c0 3-2.2 5-5.7 5-2.7 0-4.9-1.6-5.3-3.7zm9-7.5c0-2.8-1.5-4.7-3.7-4.7s-3.6 1.8-3.6 4.7 1.4 4.6 3.6 4.6 3.7-1.8 3.7-4.6z"/></g><path d="M23.2 35.6c-.2.2-.2.3 0 .7.5.9 3.5 7.3 3.3 19.1v1.7c0 .2 0 .7 1.1.7H41c1.1 0 1.1-.5 1.1-.7v-1.7c-.2-11.7 2.8-18.2 3.1-19.1.2-.3.2-.5 0-.7-3.5-.3-7.2-.5-11.1-.5-3.7-.1-7.3.2-10.9.5zM40 59.1H28.4s-.9 0-.9.9.5.9.9.9h11.7c.2 0 .9 0 .9-.9-.1-.9-1-.9-1-.9zm0 5.9H28.4s-.9 0-.9.9.5.9.9.9h11.7c.2 0 .9 0 .9-.9.1-.9-1-.9-1-.9zm0-2.9H28.4s-.9 0-.9.9.5.9.9.9h11.7c.2 0 .9 0 .9-.9.1-.9-1-.9-1-.9zM36.7 68H32s-.7 0-.7.9c0 .7.3.9.7.9h4.7c.3 0 .7-.2.7-.9s-.7-.9-.7-.9z" fill="#9da0a2"/><defs ><path id="B" d="M83.1 118.7h2v2c.7-1.4 2.1-2.2 4-2.2 2.8 0 4.4 1.8 4.4 4.7v8.2h-2.1v-7.9c0-2.1-1-3.2-2.9-3.2-2 0-3.3 1.4-3.3 3.6v7.5h-2.1v-12.7z"/></defs></svg>