<svg xmlns="http://www.w3.org/2000/svg" xmlns:xlink="http://www.w3.org/1999/xlink" viewBox="0 0 182.4 182.4"><path d="M168.2 182.4h-154c-7.8 0-14.2-6.3-14.2-14.2v-154C0 6.4 6.4 0 14.2 0h154.1c7.8 0 14.2 6.3 14.2 14.2v154.1c-.1 7.8-6.4 14.1-14.3 14.1z" fill="#fff" opacity=".8" enable-background="new"/><path d="M27.9 142.8c3.3 0 5.6 2.3 5.6 5.7 0 3.3-2.4 5.7-5.7 5.7h-4.1v6.3h-2.2v-17.6h6.4zm-4.1 9.4h3.5c2.5 0 4-1.4 4-3.7s-1.4-3.7-4-3.7h-3.5v7.4zm11.3 4.6c0-2.2 1.7-3.5 4.6-3.7l3.6-.2v-1.1c0-1.5-1-2.5-2.8-2.5-1.6 0-2.7.8-2.9 2h-2.1c.1-2.2 2-3.9 5-3.9s4.9 1.6 4.9 4.1v8.8h-2v-2.2c-.8 1.5-2.4 2.4-4.1 2.4-2.5.1-4.2-1.4-4.2-3.7zm8.2-1.2v-1l-3.4.2c-1.7.1-2.7.9-2.7 2.1s1 2 2.5 2c2.1-.1 3.6-1.5 3.6-3.3zm-5.2-11.3a2.26 2.26 0 0 1 2.3-2.3 2.3 2.3 0 1 1 0 4.6c-1.3 0-2.3-1.1-2.3-2.3zm3.6 0c0-.7-.6-1.3-1.3-1.3s-1.3.6-1.3 1.3.6 1.3 1.3 1.3 1.3-.6 1.3-1.3z" opacity=".6" enable-background="new"/><g opacity=".6" enable-background="new"><path d="M22.9 126.7c.3 1.9 2 3 4.5 3 2.4 0 4.1-1.3 4.1-3 0-1.5-1-2.5-3.4-3l-2-.4c-3.5-.8-5.1-2.4-5.1-4.9 0-2.9 2.6-4.9 6.2-4.9 3.5 0 6.1 2.1 6.2 5.1h-2.2c-.2-1.9-1.7-3.1-4-3.1-2.2 0-3.9 1.1-3.9 2.9 0 1.4.9 2.3 3.3 2.9l2 .4c3.7.8 5.1 2.3 5.1 4.8 0 3.3-2.6 5.3-6.5 5.3-3.8 0-6.4-2-6.6-5h2.3zm16.4 4.7h-2.1v-17.6h2.1v10.6l5.6-5.6h2.6l-5.5 5.5 5.7 7.2h-2.5l-4.7-5.9-1.2 1.1v4.7z"/><use xlink:href="#B"/><path d="M58.8 115.1c0-.7.6-1.3 1.3-1.3s1.3.6 1.3 1.3-.6 1.3-1.3 1.3c-.7.1-1.3-.5-1.3-1.3zm.2 3.6h2.1v12.7H59v-12.7zm11.8 12.7h-2.2l-4.7-12.7h2.2l3.5 10.4 3.5-10.4h2.2l-4.5 12.7zm9.5-2.1h0v2.1h-2v-17.6h2.1v7c.8-1.5 2.3-2.3 4.1-2.3 3.2 0 5.4 2.6 5.4 6.6s-2.1 6.6-5.4 6.6c-1.9-.1-3.4-1-4.2-2.4zm0-4.2c0 2.8 1.5 4.7 3.7 4.7s3.6-1.8 3.6-4.7-1.4-4.7-3.6-4.7c-2.1 0-3.7 1.8-3.7 4.7zm12 0c0-4.1 2.4-6.6 5.9-6.6s5.9 2.5 5.9 6.6c0 4-2.4 6.6-5.9 6.6-3.5-.1-5.9-2.6-5.9-6.6zm9.6 0c0-3-1.5-4.7-3.7-4.7s-3.7 1.7-3.7 4.7 1.5 4.7 3.7 4.7 3.7-1.8 3.7-4.7z"/><use xlink:href="#B" x="57"/><path d="M114.7 125.1c0-4 2.2-6.6 5.4-6.6 1.8 0 3.3.9 4 2.3h0v-7h2.1v17.6h-2v-2.1c-.8 1.5-2.3 2.4-4.1 2.4-3.2-.1-5.4-2.7-5.4-6.6zm2.2 0c0 2.9 1.4 4.7 3.7 4.7 2.2 0 3.6-1.9 3.6-4.7s-1.5-4.7-3.6-4.7c-2.3 0-3.7 1.8-3.7 4.7z"/></g><path d="M40.1 50.2c.6-.3 1.2-.7 1.2-1.4H36c0 .7.6 1.2 1.2 1.4v22.3h-5.9v2.9H46v-2.9h-5.9V50.2z" fill="#9da0a2"/><defs ><path id="B" d="M50.2 118.7h2v2.1c.4-1.4 1.6-2.3 3.1-2.3.4 0 .7.1.9.1v2.1c-.2-.1-.6-.1-1.1-.1-1.6 0-2.7 1.2-2.7 3v7.9h-2.1v-12.8z"/></defs></svg>