<svg xmlns="http://www.w3.org/2000/svg" viewBox="0 0 182.4 182.4"><path d="M168.2 182.4h-154c-7.8 0-14.2-6.3-14.2-14.2v-154C0 6.4 6.4 0 14.2 0h154.1c7.8 0 14.2 6.3 14.2 14.2v154.1c-.1 7.8-6.4 14.1-14.3 14.1z" fill="#737373" opacity=".2" enable-background="new"/><path d="M31.3 155.4h-7l-1.8 5h-2.3l6.5-17.6h2.2l6.5 17.6H33l-1.7-5zm-6.4-1.9h5.7l-2.8-8h-.1l-2.8 8zm17.9 6.9h-2.2L36 147.7h2.2l3.5 10.4 3.5-10.4h2.2l-4.6 12.7z" opacity=".3" enable-background="new" fill="#fff"/><path d="M27.9 113.8c3.3 0 5.6 2.3 5.6 5.7 0 3.3-2.4 5.7-5.7 5.7h-4.1v6.3h-2.2v-17.6h6.4zm-4.1 9.4h3.5c2.5 0 4-1.4 4-3.7s-1.4-3.7-4-3.7h-3.5v7.4zm13-9.4h2.1v17.6h-2.1v-17.6zm5.5 14c0-2.2 1.7-3.5 4.6-3.7l3.6-.2v-1.1c0-1.5-1-2.5-2.8-2.5-1.6 0-2.7.8-2.9 2h-2.1c.1-2.2 2-3.9 5-3.9s4.9 1.6 4.9 4.1v8.8h-2v-2.2c-.8 1.5-2.4 2.4-4.1 2.4-2.5.1-4.2-1.4-4.2-3.7zm8.2-1.2v-1l-3.4.2c-1.7.1-2.7.9-2.7 2.1s1 2 2.5 2c2.1-.1 3.6-1.5 3.6-3.3zm6 9.5v-1.8c.2 0 .6.1.8.1 1.2 0 1.8-.6 2.3-2.1l.3-.9-4.7-12.7h2.3l3.5 10.6 3.5-10.6h2.2l-5 13.6c-1.1 3-2.1 3.9-4.4 3.9-.1 0-.6-.1-.8-.1zM74 118.5c2.8 0 4.6 1.6 4.7 3.9h-2c-.2-1.3-1.1-2.1-2.7-2.1s-2.6.8-2.6 1.9c0 .9.6 1.5 2.1 1.8l2 .5c2.5.5 3.5 1.5 3.5 3.4 0 2.2-2.1 3.8-4.9 3.8-3 0-4.8-1.5-5.1-3.9h2.1c.3 1.5 1.2 2.1 3 2.1s2.8-.7 2.8-1.9c0-.9-.5-1.4-2-1.8l-2-.5c-2.4-.6-3.6-1.7-3.6-3.5 0-2.2 1.9-3.7 4.7-3.7zm11-2.9v3.1h2.5v1.7H85v7.5c0 1.2.5 1.7 1.6 1.7.2 0 .7 0 .9-.1v1.8c-.3.1-.8.1-1.3.1-2.3 0-3.2-1-3.2-3.4v-7.7h-1.9v-1.7H83v-3.1h2zm4.9 12.2c0-2.2 1.7-3.5 4.6-3.7l3.6-.2v-1.1c0-1.5-1-2.5-2.8-2.5-1.6 0-2.7.8-2.9 2h-2.1c.1-2.2 2-3.9 5-3.9s4.9 1.6 4.9 4.1v8.8h-2v-2.2c-.8 1.5-2.4 2.4-4.1 2.4-2.5.1-4.2-1.4-4.2-3.7zm8.3-1.2v-1l-3.4.2c-1.7.1-2.7.9-2.7 2.1s1 2 2.5 2c2-.1 3.6-1.5 3.6-3.3zm8.6-11v3.1h2.5v1.7h-2.5v7.5c0 1.2.5 1.7 1.6 1.7.2 0 .7 0 .9-.1v1.8c-.3.1-.8.1-1.3.1-2.3 0-3.2-1-3.2-3.4v-7.7h-1.9v-1.7h1.9v-3.1h2zm5.6-.5c0-.7.6-1.3 1.3-1.3s1.3.6 1.3 1.3-.6 1.3-1.3 1.3c-.7.1-1.3-.5-1.3-1.3zm.2 3.6h2.1v12.7h-2.1v-12.7zm5.4 6.4c0-4.1 2.4-6.6 5.9-6.6s5.9 2.5 5.9 6.6c0 4-2.4 6.6-5.9 6.6-3.5-.1-5.9-2.6-5.9-6.6zm9.6 0c0-3-1.5-4.7-3.7-4.7s-3.7 1.7-3.7 4.7 1.5 4.7 3.7 4.7 3.7-1.8 3.7-4.7zm5.3-6.4h2v2c.7-1.4 2.1-2.2 4-2.2 2.8 0 4.4 1.8 4.4 4.7v8.2h-2.1v-7.9c0-2.1-1-3.2-2.9-3.2-2 0-3.3 1.4-3.3 3.6v7.5h-2.1v-12.7z" opacity=".3" enable-background="new" fill="#fff"/><path d="M51.4 26.8c0-.6.2-1.2.9-1.5s1.2-.1 1.8.3c.9.6 1.2 1.5 1.2 2.6v14.2c0 1 .2 1.3 1.2 1.6.5.2 1 .3 1.5.4 3.5.7 5.9-.6 7.1-3.9.1-.2.1-.4.2-.6.7-2.1.7-4.2.6-6.4-.1-2.6-1-4.9-2.7-6.9-1.9-2.3-4.3-3.8-7.1-4.7L42.7 18c-.2 0-.4 0-.7-.1 0 .4-.1.7-.1 1v40.6c0 1.1 0 1.2 1.2 1.6l6.7 2.3 1.4.4v-1.3l.2-35.7zM40 43.9l-1.1.3-13.6 4.9c-1.5.6-2.9 1.3-4.2 2.2-1.5.9-1.6 2.7-.3 3.9.5.5 1.1.9 1.8 1.2 4.2 1.6 8.5 2.6 13 2.3 1.1-.1 2.2-.2 3.3-.4.8-.1 1-.4 1.1-1.1.1-1.3 0-2.6 0-4.1h0c-.4.1-.6.2-.9.2l-3.3 1.2c-1.3.5-2.7.8-4.2.7-.7 0-1.4-.2-2.1-.4-.2-.1-.5-.4-.6-.6 0-.2.2-.5.5-.6.5-.3.9-.5 1.4-.7l8.3-3.2c.7-.3 1-.6 1-1.4-.1-1.2 0-2.5 0-3.7 0-.2-.1-.4-.1-.7zm34.9 11.3c1.1-.4 2.1-1.2 3-2 1.1-.9 1-1.9.1-3l-.9-.9c-1.2-.9-2.5-1.6-4-2-4.2-1.2-8.6-1.7-13-1-2 .3-4 .9-6 1.4-.6.1-.9.5-.9 1.1v4.5c0 .1.1.2.2.4.4-.1.7-.2 1.1-.3l9.3-3.2c1.2-.4 2.5-.7 3.8-.6.5 0 1 .1 1.5.2.3.1.8.4.8.7.1.2-.3.7-.6.9a11.94 11.94 0 0 1-1.6.8l-6.4 2.4-6.9 2.5c-.7.3-1.1.7-1 1.5V63c.4-.1.6-.1.8-.2l20.7-7.6z" fill="#9da0a2"/></svg>