<svg xmlns="http://www.w3.org/2000/svg" viewBox="0 0 50 50">
  <path d="M0 0h50v50H0z" fill="#080808"/>
  <g fill="#f7f7f7">
    <path d="M30.9 9.4H19.1a2.65 2.65 0 0 0-2.6 2.6v26a2.65 2.65 0 0 0 2.6 2.6H31a2.65 2.65 0 0 0 2.6-2.6V12c-.1-1.4-1.2-2.6-2.7-2.6zM32 38a1.11 1.11 0 0 1-1.1 1.1H19.1A1.11 1.11 0 0 1 18 38V12a1.11 1.11 0 0 1 1.1-1.1H21c.2 0 .4.2.4.4a1.11 1.11 0 0 0 1.1 1.1h5.2a1.11 1.11 0 0 0 1.1-1.1c0-.2.2-.4.4-.4h1.9a1.11 1.11 0 0 1 1.1 1.1v26z"/>
    <path d="M30.9 40.8H19.1c-1.6 0-2.8-1.3-2.8-2.8V12c0-1.6 1.3-2.8 2.8-2.8H31c1.6 0 2.8 1.3 2.8 2.8v26c0 1.5-1.3 2.8-2.9 2.8zM19.1 9.7c-1.3 0-2.3 1.1-2.3 2.3v26c0 1.3 1.1 2.3 2.3 2.3H31c1.3 0 2.3-1.1 2.3-2.3V12c0-1.3-1.1-2.3-2.3-2.3H19.1zm11.8 29.6H19.1c-.8 0-1.4-.6-1.4-1.4V12c0-.8.6-1.4 1.4-1.4H21a.65.65 0 0 1 .6.6c0 .5.4.9.9.9h5.2c.5 0 .9-.4.9-.9a.65.65 0 0 1 .6-.6h1.9c.8 0 1.4.6 1.4 1.4v26c-.2.7-.8 1.3-1.6 1.3zM19.1 11.2c-.5 0-.9.4-.9.9V38c0 .5.4.9.9.9H31c.5 0 .9-.4.9-.9V12c0-.5-.4-.9-.9-.9h-1.9c-.1 0-.1.1-.1.1 0 .8-.6 1.4-1.4 1.4h-5.2c-.8 0-1.4-.6-1.4-1.4 0-.1-.1-.1-.1-.1h-1.8z"/>
  </g>
</svg>
