<svg xmlns="http://www.w3.org/2000/svg" viewBox="0 0 500 500"><path fill="#101517" d="M84 104h332v282H84z"/><path fill="#e1e1e1" d="M3.9 249.6C3.9 113.3 114 3.1 250.3 3.3c137.5.2 246 112.6 245.7 246.5-.3 136.3-110.2 246.3-246.5 246.2C112.7 496 3.3 384.1 3.9 249.6zm256.3 103.6v-6.7l.4-178.2c.2-3.2 1.2-5.9 4.3-7.4 3.3-1.6 6.2-.3 8.9 1.7 4.4 3.2 6 7.6 6 13l-.1 70.8c.2 5.2 1.2 6.6 5.9 8.2 2.5.9 5.1 1.6 7.7 2.2 17.3 3.7 29.4-3 35.5-19.7.4-1 .7-2 1-3 3.3-10.5 3.7-21.2 3.2-32.1-.6-13.1-5.1-24.5-13.3-34.6-9.4-11.5-21.4-19.1-35.5-23.3l-67.4-19.5c-.9-.3-1.9-.3-3.1-.4-.1 2-.3 3.5-.3 5.1l.2 202.7c0 5.7.1 5.8 5.8 7.8l33.7 11.6c2.1.4 4.1.9 7.1 1.8zm9.2-3.4c1.8-.4 2.8-.6 3.8-.9l104.7-38.5c5.5-2.1 10.4-6.1 14.9-9.9 5.3-4.5 5.1-9.7.4-14.8-1.4-1.6-3.1-3-4.7-4.3-5.9-4.7-12.6-8-19.8-10-21.2-5.9-42.9-8.4-64.7-4.9-10.1 1.6-19.9 4.7-29.9 7.2-2.8.7-4.6 2.3-4.6 5.6v22.3c0 .6.5 1.2.8 2 1.9-.6 3.6-1 5.3-1.6l46.2-15.9c6.1-2.1 12.3-3.3 18.8-2.9 2.5.2 5 .3 7.3 1.1 1.7.6 3.9 2 4.2 3.4.3 1.2-1.5 3.4-3 4.4-2.5 1.6-5.3 2.8-8.2 3.8L309 307.7l-34.4 12.6c-3.7 1.3-5.4 3.4-5.2 7.4.2 5 0 9.9 0 14.9v7.2zm-66.4-50c-2 .6-3.2.8-4.4 1.2l-16.5 6c-6.7 2.4-13.6 3.9-20.8 3.6a46.26 46.26 0 0 1-10.4-1.8c-1.2-.3-2.7-1.9-3-3.2-.2-.8 1.2-2.5 2.3-3.1 2.3-1.3 4.7-2.4 7.2-3.3l41.7-15.9c3.5-1.3 5-3.2 4.9-7.1-.3-6.2 0-12.4 0-18.6 0-1.1-.3-2.3-.5-3.8-2.1.6-3.8 1-5.4 1.6l-67.8 24.7c-7.4 2.8-14.4 6.7-21.2 10.9-7.6 4.7-8.1 13.3-1.4 19.3 2.6 2.3 5.6 4.5 8.8 5.8 20.8 8.2 42.3 13 64.8 11.7 5.5-.3 10.9-1.2 16.3-2.1 3.8-.6 5.2-2 5.3-5.5.3-6.6.1-13.2.1-20.4z"/></svg>