<svg xmlns="http://www.w3.org/2000/svg" viewBox="0 0 500 500"><path fill="#101517" d="M72 178.2h354V320H72z"/><path fill="#e1e1e1" d="M496 250.4c0 136-110.4 246.2-246.6 246.1C113.8 496.4 3.7 385.8 3.9 249.9S114.4 3.9 250.2 4C385.9 4.1 496 114.5 496 250.4zm-337.8 0c.1-12.3-9.6-22.2-21.8-22.4-12.4-.2-22.6 9.8-22.7 22.2-.1 12.1 9.8 22.2 22 22.4 12.5.1 22.4-9.7 22.5-22.2zm107.5-.5c-.2 12.3 9.4 22.3 21.6 22.6 12.5.3 22.7-9.5 22.9-21.9.1-12.5-9.7-22.6-22.1-22.6-12.3 0-22.3 9.7-22.4 21.9zm-31.5.4c0-12.3-9.7-22.2-21.9-22.3-12.4-.1-22.6 9.9-22.6 22.3 0 12.2 9.8 22.2 22 22.3 12.5 0 22.5-9.8 22.5-22.3zM364 272.5c12.2 0 22.1-9.9 22.2-22.1.1-12.4-10-22.5-22.4-22.5-12.2 0-22 9.8-22.1 22.1-.1 12.7 9.7 22.5 22.3 22.5z"/></svg>