<svg xmlns="http://www.w3.org/2000/svg" viewBox="0 0 500 500"><path fill="#101517" d="M59.5 116.1h381v260h-381z"/><path fill="#e1e1e1" d="M251.8 496.4L115.5 495c-24.1-.2-45.6-7.9-64.6-22.5-20.7-15.9-35.6-35.9-42.4-61.5-2.5-9.4-3.5-19-3.6-28.8L4.6 163l.4-46.8c.7-35.9 15.5-65 43.4-87.4C62.5 17.5 78.1 9.4 96 6c4.7-.9 9.5-1.5 14.2-1.5l164.9-1.1 109.1.9c25.3.2 47.5 8.5 67.1 24.3 21.3 17.1 36.1 38.4 41.4 65.6 1.5 8 2.4 16.2 2.5 24.3l1 204.3c0 22.3-.2 44.7-1.2 67-1 22-8.8 42-22 59.4-17.2 22.7-39.8 37.7-67.7 43.9-6.2 1.4-12.6 1.8-19 1.9l-134.5 1.4zm-40.4-276.8c-9.6-12.2-22.6-16.5-36.5-12.6-4.1 1.1-8.1 2.5-12.1 4-2.8 1.1-5.4 1-8.2 0-4-1.4-8-2.8-12.2-3.7-3.4-.7-7.1-1.5-10.4-1-14.9 2.3-24.5 11.4-29.2 25.4-3.8 11.2-2.9 22.7-.1 34.1 3.6 15.1 10.5 28.5 21 40 5.5 6 12.3 9.1 20 5.8 11.3-4.8 22.1-4.6 33.5-.4 7.9 2.9 15.1.5 20.9-6.3 7.2-8.3 11.6-18.1 16.3-27.9.2-.4.1-1 .2-2.2-10.1-5.6-17.1-13.8-17.9-26.1s4.5-21.8 14.7-29.1zm98.5-13.5c.6 1.9.9 3.1 1.3 4.2l35.8 94.9c1.1 3 2.7 4.4 5.8 4.2 2.5-.1 5 0 7.4 0 6.5 0 6.5 0 8.8-6l36.5-93c.6-1.4 1-2.9 1.6-4.8h-19.4l-28.3 82.5c-11.5-27.3-19.7-55.3-30-82.1l-19.5.1zm-37.1-25.8l-13 3.9c-5.4 1.7-5.4 1.7-5.7 7.3l-.5 14.2h-16.1l.6 14.2h15.7v6.4l.3 44.1c.2 7.2.9 14.5 1.9 21.7.8 5.5 3.2 10.5 7.8 14.1 8.1 6.5 25 7.6 34.8 2.1l-.8-12.6H285c-5.2-.1-8.8-2.8-10.2-7.7-.9-3.2-1.6-6.6-1.6-9.9l-.1-53.7c0-1.2.2-2.4.3-4.3h26.2c.2-5.2.7-9.7-.5-14.7h-26.3v-25.1zm-87.9-8.8c-19.1 3-29.4 20.8-26.3 31.3 13.6 3 29.2-15.4 26.3-31.3z"/></svg>