<svg xmlns="http://www.w3.org/2000/svg" viewBox="0 0 400 400" fill="#747474"><path d="M174.9 190.1H15a14.98 14.98 0 0 1-15-15v-160a14.98 14.98 0 0 1 15-15h159.9a14.98 14.98 0 0 1 15 15V175c0 8.3-6.7 15.1-15 15.1zm0 209.9H15a14.98 14.98 0 0 1-15-15V225.1a14.98 14.98 0 0 1 15-15h159.9a14.98 14.98 0 0 1 15 15V385a14.98 14.98 0 0 1-15 15zM385 190.1H225.1a14.98 14.98 0 0 1-15-15v-160a14.98 14.98 0 0 1 15-15H385a14.98 14.98 0 0 1 15 15V175c0 8.3-6.7 15.1-15 15.1zm0 209.9H225.1a14.98 14.98 0 0 1-15-15V225.1a14.98 14.98 0 0 1 15-15H385a14.98 14.98 0 0 1 15 15V385a14.98 14.98 0 0 1-15 15z" opacity=".2"/></svg>