<svg xmlns="http://www.w3.org/2000/svg" viewBox="0 0 50 50"><path d="M25 18.6c-4.6 0-8.4 3.8-8.4 8.4s3.8 8.4 8.4 8.4 8.4-3.8 8.4-8.4-3.7-8.4-8.4-8.4zm0 11.7a3.33 3.33 0 0 1-3.3-3.3 3.33 3.33 0 0 1 3.3-3.3 3.33 3.33 0 0 1 3.3 3.3c0 1.8-1.4 3.3-3.3 3.3zM39.2 1H10.9C9.4 1 8.3 2.1 8.3 3.6v42.9a2.65 2.65 0 0 0 2.6 2.6h28.3a2.65 2.65 0 0 0 2.6-2.6v-43C41.7 2 40.5.9 39.2 1zM25 7c1.3 0 2.4 1.1 2.4 2.4s-1.1 2.4-2.4 2.4-2.4-1.1-2.4-2.4S23.7 7 25 7zm10.3 35.5l-.4 1.9s-.2.6-.6.6H15.8c-.4 0-.6-.6-.6-.6l-.4-1.9c-.2-.9.6-.9.6-.9h19.3s.9.1.6.9zM25 38.2c-6.2 0-11.3-5.1-11.3-11.3a11.29 11.29 0 1 1 22.6 0c.1 6.3-5 11.3-11.3 11.3z" fill="#9da0a2"/></svg>